<svg width="85" height="89" viewBox="0 0 85 89" fill="none" xmlns="http://www.w3.org/2000/svg">
<g id="participator">
<ellipse id="Ellipse 129" cx="42.424" cy="70.6947" rx="42.0324" ry="18.1791" fill="#D9D9D9"/>
<g id="Group 35236">
<rect id="Rectangle 4202" x="7.31152" y="0.743164" width="41.3341" height="65.1971" rx="8" fill="black"/>
<g id="Group 35235">
<rect id="Rectangle 4204" x="13.6299" y="6.12695" width="12.0049" height="8.77683" rx="3" fill="white"/>
<rect id="Rectangle 4206" x="13.6299" y="19.1826" width="12.0049" height="8.77683" rx="3" fill="white"/>
<rect id="Rectangle 4208" x="13.6299" y="32.2383" width="12.0049" height="8.77683" rx="3" fill="white"/>
<rect id="Rectangle 4205" x="30.3223" y="6.12695" width="12.0049" height="8.77683" rx="3" fill="white"/>
<rect id="Rectangle 4207" x="30.3223" y="19.1826" width="12.0049" height="8.77683" rx="3" fill="white"/>
<rect id="Rectangle 4209" x="30.3223" y="32.2383" width="12.0049" height="8.77683" rx="3" fill="white"/>
</g>
<rect id="Rectangle 4203" x="36.2021" y="19.4307" width="41.3341" height="57.6132" rx="8" fill="#FFC701"/>
<g id="Group 35234">
<rect id="Rectangle 4204_2" x="42.5205" y="26.4043" width="12.0049" height="8.77683" rx="3" fill="white"/>
<rect id="Rectangle 4206_2" x="42.5205" y="39.46" width="12.0049" height="8.77683" rx="3" fill="white"/>
<rect id="Rectangle 4208_2" x="42.5205" y="52.5156" width="12.0049" height="8.77683" rx="3" fill="white"/>
<rect id="Rectangle 4205_2" x="59.2139" y="26.4043" width="12.0049" height="8.77683" rx="3" fill="white"/>
<rect id="Rectangle 4207_2" x="59.2139" y="39.46" width="12.0049" height="8.77683" rx="3" fill="white"/>
<rect id="Rectangle 4209_2" x="59.2139" y="52.5156" width="12.0049" height="8.77683" rx="3" fill="white"/>
</g>
</g>
</g>
</svg>
