<svg width="79" height="89" viewBox="0 0 79 89" fill="none" xmlns="http://www.w3.org/2000/svg">
<g id="protector">
<g id="Group 35238">
<g id="Group">
<path id="Vector" d="M51.0717 35.964C54.0995 36.2115 63.7832 37.8507 71.2987 47.6271C73.1606 50.0457 78.4617 56.9426 76.3091 64.5479C75.9658 65.7541 74.4998 70.2882 70.1853 72.5614C64.0832 75.7779 55.5408 74.7821 51.5944 71.2253C47.518 67.5479 44.351 60.9448 43.3025 55.9746C42.2819 51.1312 43.5406 40.9218 43.5808 36.9383L51.0717 35.9609V35.964Z" fill="#ECF4F7"/>
<path id="Vector_2" d="M26.0664 35.964C23.0385 36.2115 13.3549 37.8507 5.83932 47.6271C3.97744 50.0457 -1.32366 56.9426 0.828947 64.5479C1.17225 65.7541 2.63825 70.2882 6.95274 72.5614C13.0549 75.7779 21.5973 74.7821 25.5437 71.2253C29.62 67.5479 32.7871 60.9448 33.8356 55.9746C34.8562 51.1312 33.5974 40.9218 33.5572 36.9383L26.0664 35.9609V35.964Z" fill="#ECF4F7"/>
</g>
<g id="Group_2">
<g id="Group_3">
<path id="Vector_3" d="M61.3646 33.0541C61.3646 57.6792 62.4903 79.2423 37.9797 79.2423C13.4691 79.2423 14.5949 57.6792 14.5949 33.0541C14.5949 8.42907 30.9281 4.12695 37.9797 4.12695C45.0314 4.12695 61.3646 8.42907 61.3646 33.0541Z" fill="url(#paint0_linear_330_7961)"/>
<g id="Clip path group">
<mask id="mask0_330_7961" style="mask-type:luminance" maskUnits="userSpaceOnUse" x="14" y="4" width="48" height="76">
<g id="clippath">
<path id="Vector_4" d="M61.3646 33.0541C61.3646 57.6792 62.4903 79.2423 37.9797 79.2423C13.4691 79.2423 14.5949 57.6792 14.5949 33.0541C14.5949 8.42907 30.9281 4.12695 37.9797 4.12695C45.0314 4.12695 61.3646 8.42907 61.3646 33.0541Z" fill="white"/>
</g>
</mask>
<g mask="url(#mask0_330_7961)">
<g id="Group_4">
<path id="Vector_5" d="M66.1675 38.6611H11.873V56.0335H66.1675V38.6611Z" fill="#1D1E1E"/>
<path id="Vector_6" d="M66.1675 67.3164H11.873V84.6888H66.1675V67.3164Z" fill="#1D1E1E"/>
</g>
</g>
</g>
</g>
<g id="Group_5">
<path id="Vector_7" d="M31.2311 9.0226C30.3156 8.12258 28.2063 5.80297 28.0053 3.39675C27.829 1.83178 26.9506 0.647231 26.0414 0.749294C25.1321 0.851357 24.5413 2.20292 24.7176 3.76789C24.8939 5.33286 25.7723 6.51741 26.6816 6.41535C26.8857 6.3937 27.0744 6.304 27.2445 6.16483C27.8352 7.41124 28.8806 8.82775 30.7053 9.74632C30.8476 9.81745 31.0177 9.81127 31.1538 9.72776C31.4012 9.57312 31.4414 9.22672 31.2311 9.0226Z" fill="#1D1E1E"/>
<path id="Vector_8" d="M45.7423 9.0226C46.6577 8.12258 48.767 5.80297 48.9681 3.39675C49.1444 1.83178 50.0227 0.647231 50.932 0.749294C51.8413 0.851357 52.432 2.20292 52.2557 3.76789C52.0794 5.33286 51.2011 6.51741 50.2918 6.41535C50.0877 6.3937 49.899 6.304 49.7289 6.16483C49.1382 7.41124 48.0928 8.82775 46.268 9.74632C46.1258 9.81745 45.9557 9.81127 45.8196 9.72776C45.5721 9.57312 45.5319 9.22672 45.7423 9.0226Z" fill="#1D1E1E"/>
</g>
<g id="Group_6">
<path id="Vector_9" d="M30.3123 23.7872C31.4242 23.7872 32.3257 22.444 32.3257 20.7871C32.3257 19.1303 31.4242 17.7871 30.3123 17.7871C29.2003 17.7871 28.2988 19.1303 28.2988 20.7871C28.2988 22.444 29.2003 23.7872 30.3123 23.7872Z" fill="#1D1E1E"/>
<path id="Vector_10" d="M46.5808 23.7872C47.6928 23.7872 48.5942 22.444 48.5942 20.7871C48.5942 19.1303 47.6928 17.7871 46.5808 17.7871C45.4688 17.7871 44.5674 19.1303 44.5674 20.7871C44.5674 22.444 45.4688 23.7872 46.5808 23.7872Z" fill="#1D1E1E"/>
</g>
<path id="Vector_11" d="M35.5947 23.791C37.4071 24.7653 39.5783 24.79 41.4123 23.8591L41.5453 23.791" stroke="#1D1E1E" stroke-width="0.927847" stroke-miterlimit="10" stroke-linecap="round"/>
</g>
</g>
<g id="Group 35237">
<g id="Group_7">
<path id="Vector_12" d="M68.9471 74.5068C69.9572 74.5883 73.1901 75.1376 75.6991 78.4007C76.3205 79.2083 78.0894 81.5102 77.3702 84.0494C77.2561 84.4521 76.7651 85.9649 75.3267 86.726C73.2902 87.799 70.4367 87.4685 69.1217 86.2791C67.7601 85.0526 66.7034 82.8485 66.3543 81.189C66.0122 79.5714 66.4334 76.164 66.4474 74.835L68.9471 74.5092V74.5068Z" fill="#ECF4F7"/>
<path id="Vector_13" d="M58.6762 74.5068C57.6661 74.5883 54.4332 75.1376 51.9242 78.4007C51.3028 79.2083 49.5339 81.5102 50.2531 84.0494C50.3671 84.4521 50.8582 85.9649 52.2966 86.726C54.3331 87.799 57.1866 87.4685 58.5016 86.2791C59.8632 85.0526 60.9199 82.8485 61.269 81.189C61.6111 79.5714 61.1898 76.164 61.1759 74.835L58.6762 74.5092V74.5068Z" fill="#ECF4F7"/>
</g>
<g id="Group_8">
<g id="Group_9">
<path id="Vector_14" d="M63.8102 88.8744C68.7989 88.8744 72.8431 84.8302 72.8431 79.8415C72.8431 74.8528 68.7989 70.8086 63.8102 70.8086C58.8215 70.8086 54.7773 74.8528 54.7773 79.8415C54.7773 84.8302 58.8215 88.8744 63.8102 88.8744Z" fill="#1D1E1E"/>
<g id="Clip path group_2">
<mask id="mask1_330_7961" style="mask-type:luminance" maskUnits="userSpaceOnUse" x="54" y="70" width="19" height="19">
<g id="clippath_2">
<path id="Vector_15" d="M63.8102 88.8744C68.7989 88.8744 72.8431 84.8302 72.8431 79.8415C72.8431 74.8528 68.7989 70.8086 63.8102 70.8086C58.8215 70.8086 54.7773 74.8528 54.7773 79.8415C54.7773 84.8302 58.8215 88.8744 63.8102 88.8744Z" fill="white"/>
</g>
</mask>
<g mask="url(#mask1_330_7961)">
<g id="Group_10">
<path id="Vector_16" d="M73.0969 83.626H54.2305V89.4493H73.0969V83.626Z" fill="url(#paint1_linear_330_7961)"/>
</g>
</g>
</g>
</g>
<g id="Group_11">
<g id="Group_12">
<path id="Vector_17" d="M63.8102 78.3304C65.2276 78.3677 71.954 78.3304 75.8083 75.4956C79.6626 72.6607 78.7153 71.0594 78.1357 67.2796C77.8983 65.7388 77.8052 63.018 76.6462 60.2996C75.1496 56.7874 72.082 53.266 66.1726 52.2116C64.6132 51.9347 63.0142 51.9347 61.4548 52.2116C55.5431 53.2636 52.4755 56.7851 50.9789 60.2972C49.8198 63.0157 49.7244 65.7365 49.4893 67.2773C48.9098 71.0571 47.9625 72.6584 51.8168 75.4932C55.6711 78.3281 62.3951 78.3653 63.8149 78.3281L63.8102 78.3304Z" fill="url(#paint2_linear_330_7961)"/>
<g id="Group_13">
<path id="Vector_18" d="M58.3504 55.6075C57.6614 54.9302 56.0741 53.1846 55.9228 51.3739C55.7925 50.1962 55.1292 49.3048 54.4472 49.3816C53.7653 49.4584 53.3184 50.4755 53.4511 51.6532C53.5837 52.8309 54.2447 53.7223 54.929 53.6455C55.0826 53.6292 55.2246 53.5617 55.3526 53.457C55.7971 54.3949 56.5838 55.4609 57.957 56.1522C58.0641 56.2057 58.1921 56.201 58.2945 56.1382C58.4807 56.0218 58.511 55.7611 58.3527 55.6075H58.3504Z" fill="#1D1E1E"/>
<path id="Vector_19" d="M69.2731 55.6075C69.962 54.9302 71.5494 53.1846 71.7006 51.3739C71.8333 50.1962 72.4943 49.3048 73.1786 49.3816C73.8629 49.4584 74.3074 50.4755 74.1747 51.6532C74.0421 52.8309 73.3811 53.7223 72.6968 53.6455C72.5432 53.6292 72.4012 53.5617 72.2732 53.457C71.8287 54.3949 71.042 55.4609 69.6688 56.1522C69.5617 56.2057 69.4337 56.201 69.3313 56.1382C69.1451 56.0218 69.1148 55.7611 69.2731 55.6075Z" fill="#1D1E1E"/>
</g>
</g>
<g id="Group_14">
<g id="Group_15">
<path id="Vector_20" d="M57.563 71.9883C59.4025 71.9883 60.8936 70.4972 60.8936 68.6577C60.8936 66.8183 59.4025 65.3271 57.563 65.3271C55.7236 65.3271 54.2324 66.8183 54.2324 68.6577C54.2324 70.4972 55.7236 71.9883 57.563 71.9883Z" fill="#1D1E1E"/>
<path id="Vector_21" d="M56.3852 68.3828C56.8094 68.3828 57.1533 68.0389 57.1533 67.6147C57.1533 67.1906 56.8094 66.8467 56.3852 66.8467C55.9611 66.8467 55.6172 67.1906 55.6172 67.6147C55.6172 68.0389 55.9611 68.3828 56.3852 68.3828Z" fill="white"/>
</g>
<g id="Group_16">
<path id="Vector_22" d="M70.0591 71.9883C71.8986 71.9883 73.3897 70.4972 73.3897 68.6577C73.3897 66.8183 71.8986 65.3271 70.0591 65.3271C68.2197 65.3271 66.7285 66.8183 66.7285 68.6577C66.7285 70.4972 68.2197 71.9883 70.0591 71.9883Z" fill="#1D1E1E"/>
<path id="Vector_23" d="M68.8843 68.3828C69.3085 68.3828 69.6523 68.0389 69.6523 67.6147C69.6523 67.1906 69.3085 66.8467 68.8843 66.8467C68.4601 66.8467 68.1162 67.1906 68.1162 67.6147C68.1162 68.0389 68.4601 68.3828 68.8843 68.3828Z" fill="white"/>
</g>
</g>
</g>
</g>
</g>
</g>
<defs>
<linearGradient id="paint0_linear_330_7961" x1="14.5856" y1="41.6862" x2="61.3738" y2="41.6862" gradientUnits="userSpaceOnUse">
<stop offset="0.02" stop-color="#FFC700"/>
<stop offset="0.42" stop-color="#FFC700"/>
<stop offset="0.56" stop-color="#FEC504"/>
<stop offset="0.71" stop-color="#FDC010"/>
<stop offset="0.86" stop-color="#FCB925"/>
<stop offset="1" stop-color="#FBB040"/>
</linearGradient>
<linearGradient id="paint1_linear_330_7961" x1="54.2305" y1="86.5376" x2="73.0992" y2="86.5376" gradientUnits="userSpaceOnUse">
<stop offset="0.02" stop-color="#FFC700"/>
<stop offset="0.42" stop-color="#FFC700"/>
<stop offset="0.56" stop-color="#FEC504"/>
<stop offset="0.71" stop-color="#FDC010"/>
<stop offset="0.86" stop-color="#FCB925"/>
<stop offset="1" stop-color="#FBB040"/>
</linearGradient>
<linearGradient id="paint2_linear_330_7961" x1="50.2178" y1="52.3466" x2="80.2118" y2="84.689" gradientUnits="userSpaceOnUse">
<stop offset="0.02" stop-color="#FFC700"/>
<stop offset="0.42" stop-color="#FFC700"/>
<stop offset="0.56" stop-color="#FEC504"/>
<stop offset="0.71" stop-color="#FDC010"/>
<stop offset="0.86" stop-color="#FCB925"/>
<stop offset="1" stop-color="#FBB040"/>
</linearGradient>
</defs>
</svg>
