<svg width="72" height="86" viewBox="0 0 72 86" fill="none" xmlns="http://www.w3.org/2000/svg">
<g id="self">
<g id="Group">
<path id="Vector" d="M27.3451 55.3255C25.9426 54.1313 21.0976 50.6721 13.7421 51.5816C11.922 51.8071 6.73248 52.4482 4.44213 56.5856C4.07843 57.2428 2.79098 59.7884 3.6798 62.5993C4.93707 66.5765 9.02046 69.8177 12.2161 70.0059C15.5175 70.2004 19.6666 68.7676 22.218 67.1155C24.7037 65.5065 28.4793 60.6503 30.145 58.951L27.346 55.3265L27.3451 55.3255Z" fill="#ECF4F7"/>
<path id="Vector_2" d="M44.6559 55.3256C46.0583 54.1314 50.9033 50.6721 58.2588 51.5817C60.0789 51.8071 65.2685 52.4482 67.5588 56.5856C67.9225 57.2428 69.21 59.7884 68.3211 62.5993C67.0639 66.5766 62.9805 69.8178 59.7849 70.0059C56.4834 70.2004 52.3343 68.7676 49.783 67.1155C47.2972 65.5065 43.5216 60.6504 41.856 58.9511L44.6549 55.3265L44.6559 55.3256Z" fill="#ECF4F7"/>
</g>
<g id="Group_2">
<path id="Vector_3" d="M25.2812 74.7754C25.2812 74.7754 25.6858 79.1003 28.7235 81.3298C28.7235 81.3298 28.479 82.1116 28.356 82.9599C28.2569 83.6519 28.2675 84.6396 28.7235 84.9888C29.8234 85.8332 34.0852 82.8375 33.9213 81.4953C33.8632 81.0145 33.107 80.4229 32.5373 80.1649L32.9087 75.9729L25.2812 74.7754Z" fill="#1D1E1E"/>
<path id="Vector_4" d="M46.2453 74.6426C46.2453 74.6426 45.8407 78.9675 42.803 81.197C42.803 81.197 43.0475 81.9788 43.1705 82.8271C43.2696 83.5191 43.259 84.5068 42.803 84.856C41.7031 85.7004 37.4413 82.7046 37.6052 81.3625C37.6634 80.8817 38.4195 80.2901 38.9892 80.0321L38.6178 75.8401L46.2453 74.6426Z" fill="#1D1E1E"/>
</g>
<path id="Vector_5" d="M52.7639 60.3877H18.7615C18.7615 60.3877 16.041 65.0774 16.3278 67.7305C16.6147 70.3835 18.4178 72.4215 24.9692 74.5976C30.6892 76.4962 35.1546 77.1034 35.7627 77.1034C36.3708 77.1034 40.8375 76.4962 46.5562 74.5976C53.1089 72.4215 54.9107 70.3835 55.1975 67.7305C55.4844 65.0774 52.7639 60.3877 52.7639 60.3877Z" fill="#FFC700"/>
<g id="Group 35240">
<path id="Vector 33" d="M8.12821 65.8084C9.90804 64.9126 13.2384 61.3396 16.1691 57.8964C18.3662 55.3151 22.6595 55.1782 24.0011 58.2912C24.9469 60.4858 21.3496 63.0817 19.3191 64.8498C17.6948 66.2643 13.6511 67.7286 11.6144 68.1383C11.5048 68.4096 11.358 68.878 11.1508 69.0785C10.7511 69.4655 9.94556 68.5854 7.73888 68.3607C5.5322 68.136 4.66064 67.5535 8.12821 65.8084Z" fill="#FFC700"/>
</g>
<g id="Group 35241">
<path id="Vector 33_2" d="M63.8737 65.8084C62.0939 64.9126 58.7636 61.3396 55.8328 57.8964C53.6357 55.3151 49.3424 55.1782 48.0008 58.2912C47.055 60.4858 50.6524 63.0817 52.6828 64.8498C54.3072 66.2643 58.3509 67.7286 60.3876 68.1383C60.4971 68.4096 60.644 68.878 60.8511 69.0785C61.2508 69.4655 62.0564 68.5854 64.2631 68.3607C66.4698 68.136 67.3413 67.5535 63.8737 65.8084Z" fill="#FFC700"/>
</g>
<path id="Vector_6" d="M35.7626 65.8374C18.037 65.8374 13.6231 59.4238 15.2781 55.2214C16.0607 53.2368 15.4698 50.4521 35.7626 50.4521C56.0554 50.4521 55.4645 53.2368 56.2471 55.2214C57.9034 59.4238 53.4882 65.8374 35.7626 65.8374Z" fill="#1D1E1E"/>
<path id="Vector_7" d="M36.0004 54.2038C38.6905 54.2715 51.4496 54.2038 58.7599 48.9003C66.0701 43.5968 64.2749 40.6063 63.1737 33.5359C62.7243 30.6535 62.5445 25.5676 60.3462 20.483C57.5067 13.9143 51.6863 7.3299 40.4737 5.35967C37.5153 4.83975 34.4828 4.83975 31.5244 5.35967C20.3145 7.3299 14.4941 13.9143 11.6546 20.483C9.45623 25.5689 9.27513 30.6548 8.827 33.5359C7.72584 40.6063 5.93067 43.5981 13.2409 48.9003C20.5511 54.2025 33.3116 54.2715 36.0004 54.2038Z" fill="#FFC700"/>
<g id="Group_3">
<path id="Vector_8" d="M25.0594 9.57216C24.0138 8.55707 21.6026 5.94442 21.3752 3.23665C21.173 1.47491 20.1696 0.139265 19.1319 0.253935C18.0942 0.368605 17.4174 1.89059 17.6183 3.65233C17.8193 5.41407 18.8239 6.74972 19.8603 6.63505C20.0943 6.60899 20.3097 6.51126 20.5014 6.35489C21.1783 7.75699 22.3693 9.35455 24.4566 10.3866C24.6192 10.4674 24.8135 10.4608 24.9682 10.3657C25.2511 10.1911 25.296 9.8028 25.0581 9.57216H25.0594Z" fill="#1D1E1E"/>
<path id="Vector_9" d="M46.4681 9.57216C47.5137 8.55707 49.9249 5.94442 50.1523 3.23665C50.3532 1.47491 51.3579 0.139265 52.3942 0.253935C53.4306 0.368605 54.1088 1.89059 53.9078 3.65233C53.7069 5.41407 52.7023 6.74972 51.6659 6.63505C51.4319 6.60899 51.2164 6.51126 51.0247 6.35489C50.3479 7.75699 49.1569 9.35455 47.0696 10.3866C46.907 10.4674 46.7126 10.4608 46.558 10.3657C46.2751 10.1911 46.2301 9.8028 46.4681 9.57216Z" fill="#1D1E1E"/>
</g>
<g id="Group_4">
<g id="Group_5">
<path id="Vector_10" d="M22.8704 42.8136C26.1886 42.8136 28.8785 40.1621 28.8785 36.8912C28.8785 33.6203 26.1886 30.9688 22.8704 30.9688C19.5522 30.9688 16.8623 33.6203 16.8623 36.8912C16.8623 40.1621 19.5522 42.8136 22.8704 42.8136Z" fill="#1D1E1E"/>
<path id="Vector_11" d="M20.7483 36.3985C21.5127 36.3985 22.1324 35.7877 22.1324 35.0342C22.1324 34.2807 21.5127 33.6699 20.7483 33.6699C19.9839 33.6699 19.3643 34.2807 19.3643 35.0342C19.3643 35.7877 19.9839 36.3985 20.7483 36.3985Z" fill="white"/>
</g>
<g id="Group_6">
<path id="Vector_12" d="M48.6556 42.8136C51.9738 42.8136 54.6637 40.1621 54.6637 36.8912C54.6637 33.6203 51.9738 30.9688 48.6556 30.9688C45.3374 30.9688 42.6475 33.6203 42.6475 36.8912C42.6475 40.1621 45.3374 42.8136 48.6556 42.8136Z" fill="#1D1E1E"/>
<path id="Vector_13" d="M46.5354 36.3985C47.2998 36.3985 47.9195 35.7877 47.9195 35.0342C47.9195 34.2807 47.2998 33.6699 46.5354 33.6699C45.771 33.6699 45.1514 34.2807 45.1514 35.0342C45.1514 35.7877 45.771 36.3985 46.5354 36.3985Z" fill="white"/>
</g>
</g>
<path id="Ellipse 115" d="M40.0979 43.2939C40.0979 44.9798 38.2635 45.7937 36.0006 45.7937C33.7378 45.7937 31.9033 44.9798 31.9033 43.2939C31.9033 41.6081 33.0678 42.5746 36.0006 42.5746C38.9334 42.5746 40.0979 41.6081 40.0979 43.2939Z" fill="#1D1E1E"/>
</g>
</svg>
