<svg width="107" height="121" viewBox="0 0 107 121" fill="none" xmlns="http://www.w3.org/2000/svg">
<g style="mix-blend-mode:multiply" opacity="0.3">
<path d="M70.3718 64.0893C74.0289 64.0893 76.9936 61.1246 76.9936 57.4675C76.9936 53.8104 74.0289 50.8457 70.3718 50.8457C66.7147 50.8457 63.75 53.8104 63.75 57.4675C63.75 61.1246 66.7147 64.0893 70.3718 64.0893Z" fill="#FFC700"/>
<path d="M74.1554 25.3485C75.0354 24.8205 75.8933 24.1605 76.6853 23.3686C80.0512 20.0027 82.0311 16.7248 82.5591 13.6009C83.1531 10.125 81.9871 6.80313 79.1932 3.98722C76.3773 1.17131 73.0555 0.0273554 69.5796 0.621336C66.4557 1.17132 63.1558 3.15125 59.8119 6.49514C59.1079 7.19911 58.5139 7.94708 58.0079 8.73905C57.5019 7.96908 56.908 7.19911 56.204 6.49514C52.8381 3.12925 49.5602 1.14932 46.4363 0.621336C42.9604 0.0273554 39.6385 1.19331 36.8226 3.98722C33.6768 7.13312 29.8049 13.8429 39.3306 23.3686C40.1225 24.1605 40.9805 24.8205 41.8605 25.3485C22.8971 32.0363 9.27957 50.1197 9.27957 71.327C9.27957 73.7029 9.45555 76.0128 9.78554 78.3007L5.01171 78.4107C2.59179 78.4767 0.677847 80.4787 0.743844 82.8986C0.809842 85.2745 2.74579 87.1664 5.12171 87.1664C5.16571 87.1664 5.1877 87.1664 5.2317 87.1664L11.8975 87.0124C18.4533 106.218 36.6467 120.077 58.03 120.077C84.9131 120.077 106.758 98.2101 106.758 71.349C106.758 50.1417 93.1188 32.0583 74.1774 25.3705L74.1554 25.3485ZM63.1778 9.86102C65.8177 7.22111 68.2596 5.68116 70.3935 5.30717C72.3515 4.95518 74.0894 5.61516 75.8054 7.35311C77.1913 8.73906 80.8652 12.4129 73.2974 19.9807C69.5576 23.7206 63.4858 22.8186 60.9338 22.2246C60.3399 19.6727 59.4599 13.5789 63.1778 9.86102ZM40.1885 7.35311C40.9145 6.62713 42.3005 5.24118 44.5664 5.24118C46.5683 5.24118 49.2522 6.31914 52.8161 9.86102C56.556 13.6009 55.654 19.6727 55.06 22.2246C52.5081 22.8186 46.4143 23.6986 42.6965 19.9807C35.1287 12.4129 38.8026 8.73906 40.1885 7.35311ZM58.0079 110.508C52.4641 110.508 47.2063 109.342 42.4325 107.274C21.5552 83.0526 29.0569 53.8156 34.4687 40.044C41.0245 35.0942 49.1862 32.1463 58.0079 32.1463C79.6112 32.1463 97.1886 49.7237 97.1886 71.327C97.1886 71.569 97.1886 71.8329 97.1886 72.0749C79.7652 80.1927 60.0319 70.997 59.7679 70.865C57.392 69.721 54.5321 70.711 53.3881 73.0869C52.2441 75.4628 53.2341 78.3227 55.61 79.4667C56.292 79.7967 67.3356 85.0105 81.1512 85.0105C85.705 85.0105 90.5449 84.4385 95.4287 82.9646C90.4569 98.892 75.5633 110.508 58.0079 110.508Z" fill="#FFC700"/>
</g>
</svg>
