<svg width="154" height="146" viewBox="0 0 154 146" fill="none" xmlns="http://www.w3.org/2000/svg">
<path d="M15.0311 144.984C10.453 144.984 6.84386 143.941 4.21094 141.863C1.99219 140.132 0.882812 138.128 0.882812 135.865C0.882812 134.704 1.22302 133.742 1.91083 132.973C2.59865 132.212 3.54532 131.827 4.75084 131.827C6.37053 131.827 7.56126 132.677 8.32303 134.371C9.35105 136.634 11.6733 137.773 15.2973 137.773C18.3962 137.773 21.3989 137.085 24.3054 135.702C27.3155 134.282 28.8243 132.729 28.8243 131.028C28.8243 128.706 27.885 127.175 26.0139 126.443C24.6826 125.91 22.0053 125.592 17.982 125.504C14.861 125.43 12.0653 124.83 9.59511 123.706C6.25959 122.175 4.61771 119.986 4.67688 117.124C4.72865 113.53 6.60719 110.239 10.3051 107.243C14.003 104.248 18.0781 102.754 22.5304 102.754C24.298 102.754 26.4798 103.168 29.0758 103.996C32.3003 105.032 33.92 106.215 33.92 107.561C33.92 108.523 33.5946 109.366 32.9438 110.105C32.219 110.934 31.2945 111.348 30.1556 111.348C29.305 111.348 28.0403 111.163 26.3541 110.793C24.6678 110.423 23.3958 110.239 22.5304 110.239C20.2081 110.261 17.9968 110.83 15.9038 111.954C13.7368 113.101 12.657 114.343 12.657 115.689C12.657 116.392 12.9824 116.969 13.6406 117.42C14.2989 117.871 15.2825 118.189 16.599 118.374C18.9065 118.5 21.2066 118.633 23.4919 118.759C27.493 119.069 30.6585 120.223 32.9808 122.212C35.5397 124.424 36.8192 127.486 36.8192 131.391C36.8192 136.146 34.1715 139.748 28.8687 142.196C24.8305 144.06 20.2155 144.984 15.0237 144.984H15.0311Z" fill="black"/>
<path d="M68.8512 111.23C67.9785 111.207 65.6045 110.882 61.7216 110.261C61.3666 113.574 61.1152 117.975 60.9525 123.477L60.5679 135.621C62.9789 135.636 65.4417 135.68 67.9415 135.754C69.0287 135.784 69.9236 136.176 70.6188 136.915C71.314 137.655 71.6469 138.535 71.6173 139.541C71.5877 140.547 71.1957 141.397 70.4413 142.093C69.687 142.78 68.7551 143.113 67.6457 143.084C66.6103 143.054 65.0498 143.032 62.9715 143.017C60.8933 143.002 59.3402 142.98 58.2974 142.95C57.0771 142.913 55.2355 143.017 52.7801 143.261C50.3247 143.505 48.4831 143.609 47.2628 143.572C46.1534 143.542 45.2363 143.158 44.5263 142.425C43.8163 141.693 43.4761 140.82 43.5057 139.807C43.5353 138.794 43.942 137.943 44.7334 137.241C45.5173 136.546 46.4936 136.213 47.6621 136.242C48.9786 136.279 50.7166 136.198 52.8836 135.991C52.9132 133.861 53.0093 129.786 53.1868 123.766C53.3348 118.862 53.6528 114.188 54.1409 109.743H48.2316C47.1444 109.699 46.2421 109.322 45.5321 108.597C44.8221 107.872 44.4745 106.984 44.5041 105.942C44.5337 104.899 44.9109 104.026 45.6357 103.375C46.3013 102.784 47.1149 102.451 48.0615 102.392C49.6146 102.296 52.2993 102.296 56.1304 102.406C59.5768 102.51 63.9996 103.013 69.4059 103.93C71.5581 104.3 72.6009 105.572 72.5418 107.754C72.5048 108.907 72.061 109.81 71.2031 110.446C70.5005 110.986 69.7165 111.244 68.8438 111.215L68.8512 111.23Z" fill="black"/>
<path d="M86.0098 143.202C84.9596 143.216 84.0721 142.884 83.3399 142.188C82.6077 141.501 82.2231 140.65 82.1935 139.644C82.1418 137.847 82.1418 135.148 82.1935 131.546C82.2527 127.944 82.2527 125.245 82.1935 123.447C82.1344 121.45 82.0013 118.463 81.8016 114.469C81.6019 110.482 81.4688 107.487 81.4096 105.49C81.38 104.499 81.8238 103.501 82.7334 102.495C83.6431 101.489 86.4388 101.001 87.5038 101.001C97.1553 101.001 104.928 104.618 108.722 108.079C113.241 112.206 115.578 120.201 115.734 125.363C115.83 128.477 115.164 132.086 113.737 134.933C112.317 137.84 110.313 140.199 107.739 142.004C104.847 144.037 100.728 145.139 95.3803 145.302C94.0861 145.339 92.5847 145.199 90.8837 144.873C88.8276 144.466 87.2005 143.912 86.0024 143.187L86.0098 143.202ZM100.691 110.579C98.5901 109.417 93.4648 108.101 89.1604 108.7L89.7151 136.886C90.4251 137.315 91.2239 137.625 92.1336 137.825C93.0359 138.025 94.0417 138.106 95.1437 138.069C98.9821 137.951 101.719 137.322 103.36 136.19C104.914 135.118 106.126 133.683 107.007 131.893C107.887 130.104 108.293 127.626 108.242 125.718C108.109 121.258 106.245 113.648 100.705 110.586L100.691 110.579Z" fill="black"/>
<path d="M148.134 110.439C147.793 110.439 147.431 110.387 147.054 110.283C144.273 109.529 141.566 109.152 138.933 109.152C137.646 109.152 136.263 109.255 134.784 109.463C133.305 109.67 131.737 109.98 130.066 110.387C130.066 112.672 129.992 115.231 129.836 119.728C130.798 119.661 134.156 119.343 139.917 118.774C143.201 118.448 145.279 118.286 146.152 118.286C147.165 118.286 148.03 118.611 148.755 119.255C149.48 119.898 149.835 120.756 149.835 121.821C149.835 123.87 148.74 125.023 146.558 125.297C145.183 125.401 143.127 125.571 140.398 125.815C137.957 126.088 134.281 126.429 129.363 126.821C129.245 129.002 129.186 130.763 129.186 132.101C129.186 135.466 129.385 137.382 129.777 137.848C129.97 138.07 131.049 138.181 133.024 138.181C134.089 138.181 135.694 138.158 137.846 138.107C139.991 138.055 141.603 138.033 142.668 138.033C143.008 138.033 143.519 137.981 144.192 137.877C144.865 137.774 145.36 137.722 145.686 137.722C146.684 137.722 147.535 138.003 148.237 138.573C149.043 139.209 149.45 140.103 149.45 141.25C149.45 143.173 148.444 144.327 146.433 144.704C144.717 145.029 141.152 145.192 135.738 145.192C130.325 145.192 126.486 144.437 124.785 142.921C122.914 141.257 121.975 137.648 121.975 132.094C121.975 129.794 122.145 126.332 122.478 121.717C122.81 117.102 122.98 114.492 122.98 112.206C122.98 111.607 122.892 110.712 122.722 109.536C122.551 108.361 122.463 107.473 122.463 106.867C122.463 104.256 123.668 102.947 126.072 102.947C126.826 102.947 127.521 103.161 128.158 103.59C130.147 103.095 132.048 102.718 133.838 102.466C135.635 102.215 137.328 102.089 138.926 102.089C143.26 102.089 146.721 102.584 149.317 103.583C150.9 104.182 151.691 105.276 151.691 106.859C151.691 107.754 151.38 108.545 150.767 109.233C150.079 110.025 149.206 110.417 148.141 110.417L148.134 110.439Z" fill="black"/>
<path d="M55.1088 64.3994C53.356 64.3994 51.9434 65.8194 51.9434 67.5648C51.9434 69.3103 53.3634 70.7303 55.1088 70.7303C56.8542 70.7303 58.2742 69.3103 58.2742 67.5648C58.2742 65.8194 56.8542 64.3994 55.1088 64.3994ZM55.3898 67.1433C54.9904 67.1433 54.665 66.8179 54.665 66.4185C54.665 66.0191 54.9904 65.6937 55.3898 65.6937C55.7892 65.6937 56.1146 66.0191 56.1146 66.4185C56.1146 66.8179 55.7892 67.1433 55.3898 67.1433Z" fill="black"/>
<path d="M78.273 61.4336C75.3591 43.9572 56.8103 41.9751 56.8103 41.9751C64.1691 38.9206 67.8449 29.7054 67.697 20.8156C67.5417 11.9258 60.4934 2.42213 42.7138 0.735877C24.9268 -0.950375 9.90586 2.42213 5.46095 6.5638C1.01605 10.7055 1.78522 24.0919 1.78522 24.0919V83.6581C1.85178 84.7748 2.19199 88.1917 4.85449 91.1722C8.60419 95.3731 13.8996 95.2621 14.6614 95.2326C14.6614 95.2326 19.306 93.1691 27.1086 85.0707C25.2226 85.8842 22.6859 86.18 20.5781 85.862C13.87 84.8414 9.01096 80.2338 9.72096 75.5744C10.431 70.915 16.4438 67.9641 23.1518 68.9921C23.3441 69.0217 23.5364 69.0587 23.7287 69.0956C21.9981 66.7955 20.7777 63.7854 20.4006 60.4129C19.5057 52.3884 23.6917 45.3402 29.7489 44.6672C35.8061 43.9942 41.4417 49.9478 42.3366 57.9723C42.6916 61.1303 41.9742 64.0443 41.2198 66.6624C41.2938 66.6624 44.2669 60.8789 48.2311 58.7563C49.5919 58.0241 52.8239 56.0198 57.0396 56.3674C62.0022 56.7742 65.9959 60.1763 67.941 64.636C64.6943 68.2303 61.5806 69.3397 61.5436 69.3471C60.9815 69.5394 60.6783 70.1459 60.8706 70.7079C61.0259 71.1591 61.4401 71.4401 61.8912 71.4401C62.0022 71.4401 62.1205 71.4179 62.2388 71.381C62.3794 71.3292 65.3895 70.2864 68.7324 66.9287C68.799 67.1949 68.8655 67.4612 68.9247 67.7348C70.2929 74.4576 68.2812 78.1925 66.6763 80.8624C64.4872 84.5086 61.4105 87.1341 56.6106 89.5378C46.8481 82.6374 40.7687 67.6239 40.7687 67.6239C40.7687 67.6239 37.6033 75.8998 32.9513 80.6553C32.9513 80.6553 35.1257 88.0142 42.9357 92.9546C38.4834 93.0582 34.2752 92.4073 30.9988 91.2758C28.817 93.073 20.5559 96.0091 20.5559 96.0091C36.8341 97.3921 33.7796 97.3995 38.2097 97.4143C43.2389 97.4365 56.7511 97.7619 64.9309 92.4073C73.7172 86.6608 76.7791 77.8893 77.2672 76.4175C78.0585 74.0435 79.3972 68.2303 78.2656 61.4483L78.273 61.4336ZM50.3537 25.6821C49.9913 29.2616 47.3584 31.791 45.3763 33.3811C43.6679 34.7568 41.5527 35.452 39.4005 35.4076C35.0369 35.3114 27.6929 35.2005 24.8676 35.5037C23.2627 35.6738 22.1682 35.1191 21.4434 34.4165C20.5781 33.5808 20.1269 32.3753 20.1269 31.1328V20.6381C20.1269 18.9888 20.8813 17.4209 22.183 16.5038C26.7388 13.3088 37.3888 12.8946 41.3678 13.9079C46.3082 15.1578 51.0489 18.9075 50.3611 25.6821H50.3537Z" fill="black"/>
<path d="M103.848 63.2675C104.144 63.09 104.433 62.8682 104.699 62.6019C105.831 61.4704 106.496 60.3684 106.674 59.3182C106.873 58.1496 106.481 57.0328 105.542 56.0862C104.595 55.1395 103.479 54.7549 102.31 54.9546C101.26 55.1395 100.151 55.8051 99.0264 56.9293C98.7897 57.166 98.59 57.4174 98.4199 57.6837C98.2498 57.4248 98.0501 57.166 97.8134 56.9293C96.6819 55.7977 95.5799 55.1321 94.5297 54.9546C93.3611 54.7549 92.2444 55.1469 91.2977 56.0862C90.2401 57.1438 88.9384 59.3995 92.1408 62.6019C92.4071 62.8682 92.6955 63.09 92.9914 63.2675C86.6161 65.5159 82.0381 71.5953 82.0381 78.7249C82.0381 79.5236 82.0973 80.3002 82.2082 81.0693L80.6033 81.1063C79.7898 81.1285 79.1463 81.8015 79.1685 82.6151C79.1907 83.4138 79.8416 84.0499 80.6403 84.0499C80.6551 84.0499 80.6625 84.0499 80.6773 84.0499L82.9182 83.9981C85.1222 90.4547 91.2385 95.114 98.4273 95.114C107.465 95.114 114.809 87.7626 114.809 78.7322C114.809 71.6027 110.224 65.5233 103.856 63.2749L103.848 63.2675ZM100.158 58.0609C101.045 57.1734 101.866 56.6557 102.584 56.5299C103.242 56.4116 103.826 56.6335 104.403 57.2177C104.869 57.6837 106.104 58.9188 103.56 61.463C102.303 62.7202 100.261 62.417 99.4036 62.2173C99.2039 61.3594 98.908 59.3108 100.158 58.0609ZM92.4293 57.2177C92.6733 56.9737 93.1393 56.5077 93.901 56.5077C94.5741 56.5077 95.4764 56.8701 96.6745 58.0609C97.9318 59.3182 97.6285 61.3594 97.4289 62.2173C96.5709 62.417 94.5223 62.7129 93.2724 61.463C90.7282 58.9188 91.9633 57.6837 92.4293 57.2177ZM98.4199 91.8968C96.5562 91.8968 94.7885 91.5049 93.1837 90.8097C86.165 82.6668 88.687 72.8378 90.5064 68.208C92.7103 66.5439 95.4542 65.5529 98.4199 65.5529C105.683 65.5529 111.592 71.4621 111.592 78.7249C111.592 78.8062 111.592 78.895 111.592 78.9763C105.734 81.7054 99.1003 78.6139 99.0116 78.5695C98.2128 78.185 97.2514 78.5178 96.8668 79.3165C96.4822 80.1153 96.815 81.0767 97.6138 81.4613C97.843 81.5723 101.556 83.3251 106.2 83.3251C107.731 83.3251 109.358 83.1328 111 82.6372C109.329 87.9918 104.322 91.8968 98.4199 91.8968Z" fill="black"/>
<path d="M141.367 76.2921C142.596 76.2921 143.593 75.2955 143.593 74.066C143.593 72.8365 142.596 71.8398 141.367 71.8398C140.137 71.8398 139.141 72.8365 139.141 74.066C139.141 75.2955 140.137 76.2921 141.367 76.2921Z" fill="black"/>
<path d="M142.645 63.2675C142.941 63.09 143.23 62.8682 143.496 62.6019C144.627 61.4704 145.293 60.3684 145.471 59.3182C145.67 58.1496 145.278 57.0328 144.339 56.0862C143.392 55.1395 142.276 54.7549 141.107 54.9546C140.057 55.1395 138.947 55.8051 137.823 56.9293C137.587 57.166 137.387 57.4174 137.217 57.6837C137.047 57.4248 136.847 57.166 136.61 56.9293C135.479 55.7977 134.377 55.1321 133.327 54.9546C132.158 54.7549 131.041 55.1469 130.095 56.0862C129.037 57.1438 127.735 59.3995 130.938 62.6019C131.204 62.8682 131.492 63.09 131.788 63.2675C125.413 65.5159 120.835 71.5953 120.835 78.7249C120.835 79.5236 120.894 80.3002 121.005 81.0693L119.4 81.1063C118.587 81.1285 117.943 81.8015 117.965 82.6151C117.988 83.4138 118.638 84.0499 119.437 84.0499C119.452 84.0499 119.459 84.0499 119.474 84.0499L121.715 83.9981C123.919 90.4547 130.035 95.114 137.224 95.114C146.262 95.114 153.606 87.7626 153.606 78.7322C153.606 71.6027 149.021 65.5233 142.653 63.2749L142.645 63.2675ZM138.955 58.0609C139.842 57.1734 140.663 56.6557 141.381 56.5299C142.039 56.4116 142.623 56.6335 143.2 57.2177C143.666 57.6837 144.901 58.9188 142.357 61.463C141.1 62.7202 139.058 62.417 138.2 62.2173C138.001 61.3594 137.705 59.3108 138.955 58.0609ZM131.226 57.2177C131.47 56.9737 131.936 56.5077 132.698 56.5077C133.371 56.5077 134.273 56.8701 135.471 58.0609C136.729 59.3182 136.425 61.3594 136.226 62.2173C135.368 62.417 133.319 62.7129 132.069 61.463C129.525 58.9188 130.76 57.6837 131.226 57.2177ZM137.217 91.8968C135.353 91.8968 133.585 91.5049 131.981 90.8097C124.962 82.6668 127.484 72.8378 129.303 68.208C131.507 66.5439 134.251 65.5529 137.217 65.5529C144.479 65.5529 150.389 71.4621 150.389 78.7249C150.389 78.8062 150.389 78.895 150.389 78.9763C144.531 81.7054 137.897 78.6139 137.808 78.5695C137.01 78.185 136.048 78.5178 135.664 79.3165C135.279 80.1153 135.612 81.0767 136.411 81.4613C136.64 81.5723 140.353 83.3251 144.997 83.3251C146.528 83.3251 148.155 83.1328 149.797 82.6372C148.126 87.9918 143.119 91.8968 137.217 91.8968Z" fill="black"/>
<path d="M102.576 76.2921C103.805 76.2921 104.802 75.2955 104.802 74.066C104.802 72.8365 103.805 71.8398 102.576 71.8398C101.346 71.8398 100.35 72.8365 100.35 74.066C100.35 75.2955 101.346 76.2921 102.576 76.2921Z" fill="black"/>
<path d="M103.848 63.2675C104.144 63.09 104.433 62.8682 104.699 62.6019C105.831 61.4704 106.496 60.3684 106.674 59.3182C106.873 58.1496 106.481 57.0328 105.542 56.0862C104.595 55.1395 103.479 54.7549 102.31 54.9546C101.26 55.1395 100.151 55.8051 99.0264 56.9293C98.7897 57.166 98.59 57.4174 98.4199 57.6837C98.2498 57.4248 98.0501 57.166 97.8134 56.9293C96.6819 55.7977 95.5799 55.1321 94.5297 54.9546C93.3611 54.7549 92.2444 55.1469 91.2977 56.0862C90.2401 57.1438 88.9384 59.3995 92.1408 62.6019C92.4071 62.8682 92.6955 63.09 92.9914 63.2675C86.6161 65.5159 82.0381 71.5953 82.0381 78.7249C82.0381 79.5236 82.0973 80.3002 82.2082 81.0693L80.6033 81.1063C79.7898 81.1285 79.1463 81.8015 79.1685 82.6151C79.1907 83.4138 79.8416 84.0499 80.6403 84.0499C80.6551 84.0499 80.6625 84.0499 80.6773 84.0499L82.9182 83.9981C85.1222 90.4547 91.2385 95.114 98.4273 95.114C107.465 95.114 114.809 87.7626 114.809 78.7322C114.809 71.6027 110.224 65.5233 103.856 63.2749L103.848 63.2675ZM100.158 58.0609C101.045 57.1734 101.866 56.6557 102.584 56.5299C103.242 56.4116 103.826 56.6335 104.403 57.2177C104.869 57.6837 106.104 58.9188 103.56 61.463C102.303 62.7202 100.261 62.417 99.4036 62.2173C99.2039 61.3594 98.908 59.3108 100.158 58.0609ZM92.4293 57.2177C92.6733 56.9737 93.1393 56.5077 93.901 56.5077C94.5741 56.5077 95.4764 56.8701 96.6745 58.0609C97.9318 59.3182 97.6285 61.3594 97.4289 62.2173C96.5709 62.417 94.5223 62.7129 93.2724 61.463C90.7282 58.9188 91.9633 57.6837 92.4293 57.2177ZM98.4199 91.8968C96.5562 91.8968 94.7885 91.5049 93.1837 90.8097C86.165 82.6668 88.687 72.8378 90.5064 68.208C92.7103 66.5439 95.4542 65.5529 98.4199 65.5529C105.683 65.5529 111.592 71.4621 111.592 78.7249C111.592 78.8062 111.592 78.895 111.592 78.9763C105.734 81.7054 99.1003 78.6139 99.0116 78.5695C98.2128 78.185 97.2514 78.5178 96.8668 79.3165C96.4822 80.1153 96.815 81.0767 97.6138 81.4613C97.843 81.5723 101.556 83.3251 106.2 83.3251C107.731 83.3251 109.358 83.1328 111 82.6372C109.329 87.9918 104.322 91.8968 98.4199 91.8968Z" fill="black"/>
</svg>
