<svg width="40" height="45" viewBox="0 0 40 45" fill="none" xmlns="http://www.w3.org/2000/svg">
<g clip-path="url(#clip0_428_8510)">
<path d="M39.7656 0.914062H0.765625V44.9141H39.7656V0.914062Z" fill="white"/>
<path d="M20.5859 14.0521C21.6692 14.0521 23.0271 13.3198 23.8358 12.3433C24.5681 11.4584 25.1021 10.2225 25.1021 8.98665C25.1021 8.81882 25.0869 8.65099 25.0564 8.51367C23.851 8.55944 22.4016 9.32232 21.5319 10.3446C20.8453 11.1227 20.2197 12.3433 20.2197 13.5944C20.2197 13.7775 20.2503 13.9606 20.2655 14.0216C20.3418 14.0369 20.4639 14.0521 20.5859 14.0521ZM16.7716 32.5137C18.2515 32.5137 18.9076 31.5219 20.7538 31.5219C22.6304 31.5219 23.0424 32.4832 24.6902 32.4832C26.3075 32.4832 27.3908 30.9879 28.413 29.5232C29.5573 27.8449 30.0303 26.1971 30.0608 26.1208C29.954 26.0903 26.8567 24.8239 26.8567 21.2689C26.8567 18.1869 29.2979 16.7985 29.4353 16.6917C27.818 14.3725 25.3615 14.3115 24.6902 14.3115C22.8745 14.3115 21.3946 15.41 20.4639 15.41C19.4569 15.41 18.1295 14.3725 16.558 14.3725C13.5675 14.3725 10.5312 16.8443 10.5312 21.513C10.5312 24.412 11.6603 27.4787 13.0487 29.4622C14.2388 31.1405 15.2763 32.5137 16.7716 32.5137Z" fill="black"/>
</g>
<defs>
<clipPath id="clip0_428_8510">
<rect width="39" height="44" fill="white" transform="translate(0.765625 0.914062)"/>
</clipPath>
</defs>
</svg>
