<svg width="51" height="51" viewBox="0 0 51 51" fill="none" xmlns="http://www.w3.org/2000/svg">
<g clip-path="url(#clip0_153_2457)">
<path d="M39.2541 13.9883H10.1658C9.08564 13.9883 8.20996 14.8625 8.20996 15.9409V36.9C8.20996 37.9784 9.08564 38.8526 10.1658 38.8526H39.2541C40.3343 38.8526 41.21 37.9784 41.21 36.9V15.9409C41.21 14.8625 40.3343 13.9883 39.2541 13.9883Z" fill="#FFC700"/>
<path d="M37.9621 12.8195C33.9861 11.2659 29.6675 11.2659 25.6915 12.8195C25.3489 12.9549 25.0348 13.2399 24.7921 13.5891C24.5494 13.2399 24.2424 12.9549 23.8927 12.8195C19.9167 11.273 15.598 11.273 11.6221 12.8195C10.8368 13.1259 10.2158 14.1806 10.2158 15.0928V35.8666C10.2158 36.7788 10.8368 37.2063 11.6221 36.8999C15.598 35.3463 19.9167 35.3463 23.8927 36.8999C24.2353 37.0353 24.5494 37.0211 24.7921 36.8928C25.0348 37.0211 25.3417 37.0353 25.6915 36.8999C29.6675 35.3463 33.9861 35.3463 37.9621 36.8999C38.7473 37.2063 39.3612 36.7788 39.3683 35.8666C39.3683 28.9396 39.3683 22.0198 39.3683 15.0928C39.3683 14.1806 38.7473 13.1259 37.9621 12.8195Z" fill="#E6E7E8"/>
<path d="M24.7066 34.6261C26.0194 34.6261 27.0836 33.5636 27.0836 32.253C27.0836 30.9424 26.0194 29.8799 24.7066 29.8799C23.3938 29.8799 22.3296 30.9424 22.3296 32.253C22.3296 33.5636 23.3938 34.6261 24.7066 34.6261Z" fill="#FFC700"/>
<path d="M27.8688 21.3854C27.8688 24.7563 26.0985 28.911 24.7137 28.911C23.3289 28.911 21.5586 24.7563 21.5586 21.3854C21.5586 18.0146 20.959 15.2852 24.7137 15.2852C28.4684 15.2852 27.8688 18.0146 27.8688 21.3854Z" fill="#FFC700"/>
<path d="M24.7063 39.6585C26.161 39.6585 27.3403 38.9598 27.3403 38.0978C27.3403 37.2359 26.161 36.5371 24.7063 36.5371C23.2515 36.5371 22.0723 37.2359 22.0723 38.0978C22.0723 38.9598 23.2515 39.6585 24.7063 39.6585Z" fill="#FFC700"/>
</g>
<defs>
<clipPath id="clip0_153_2457">
<rect width="33" height="28" fill="white" transform="translate(8.20996 11.6582)"/>
</clipPath>
</defs>
</svg>
