<svg width="51" height="51" viewBox="0 0 51 51" fill="none" xmlns="http://www.w3.org/2000/svg">
<g clip-path="url(#clip0_153_2598)">
<path d="M39.1828 13.625H10.0945C9.01435 13.625 8.13867 14.4992 8.13867 15.5777V36.5367C8.13867 37.6151 9.01435 38.4893 10.0945 38.4893H39.1828C40.263 38.4893 41.1387 37.6151 41.1387 36.5367V15.5777C41.1387 14.4992 40.263 13.625 39.1828 13.625Z" fill="#E6E7E8"/>
<path d="M37.8908 12.4562C33.9148 10.9026 29.5962 10.9026 25.6202 12.4562C25.2776 12.5916 24.9635 12.8767 24.7208 13.2259C24.4781 12.8767 24.1711 12.5916 23.8214 12.4562C19.8454 10.9097 15.5268 10.9097 11.5508 12.4562C10.7656 12.7626 10.1445 13.8174 10.1445 14.7295V35.5033C10.1445 36.4155 10.7656 36.8431 11.5508 36.5366C15.5268 34.983 19.8454 34.983 23.8214 36.5366C24.164 36.672 24.4781 36.6578 24.7208 36.5295C24.9635 36.6578 25.2704 36.672 25.6202 36.5366C29.5962 34.983 33.9148 34.983 37.8908 36.5366C38.676 36.8431 39.2899 36.4155 39.297 35.5033C39.297 28.5763 39.297 21.6565 39.297 14.7295C39.297 13.8174 38.676 12.7626 37.8908 12.4562Z" fill="#E6E7E8"/>
<path d="M24.6353 34.2628C25.9481 34.2628 27.0124 33.2004 27.0124 31.8897C27.0124 30.5791 25.9481 29.5166 24.6353 29.5166C23.3225 29.5166 22.2583 30.5791 22.2583 31.8897C22.2583 33.2004 23.3225 34.2628 24.6353 34.2628Z" fill="#E6E7E8"/>
<path d="M27.7975 21.0222C27.7975 24.393 26.0272 28.5477 24.6424 28.5477C23.2576 28.5477 21.4873 24.393 21.4873 21.0222C21.4873 17.6513 20.8877 14.9219 24.6424 14.9219C28.3971 14.9219 27.7975 17.6513 27.7975 21.0222Z" fill="#E6E7E8"/>
<path d="M24.635 39.2952C26.0897 39.2952 27.269 38.5965 27.269 37.7345C27.269 36.8726 26.0897 36.1738 24.635 36.1738C23.1803 36.1738 22.001 36.8726 22.001 37.7345C22.001 38.5965 23.1803 39.2952 24.635 39.2952Z" fill="#E6E7E8"/>
</g>
<defs>
<clipPath id="clip0_153_2598">
<rect width="33" height="28" fill="white" transform="translate(8.13867 11.2949)"/>
</clipPath>
</defs>
</svg>
