<svg width="51" height="51" viewBox="0 0 51 51" fill="none" xmlns="http://www.w3.org/2000/svg">
<path d="M17.0007 8.73575C18.5004 10.2281 18.5813 12.1394 18.5886 12.5952C18.596 13.4406 18.4122 14.1169 18.2578 14.5579C17.7359 14.6462 16.964 14.727 16.0598 14.5947C15.2438 14.4771 13.5089 14.2271 12.4062 12.8231C11.4726 11.6321 10.9359 9.53704 11.9725 8.26527C12.6047 7.48604 13.5824 7.33901 13.8912 7.30961C15.4202 7.15523 16.5229 8.25792 17.0007 8.73575Z" fill="#E6E7E8"/>
<path d="M19.2727 8.73575C17.773 10.2281 17.6921 12.1394 17.6848 12.5952C17.6774 13.4406 17.8612 14.1169 18.0156 14.5579C18.5375 14.6462 19.3094 14.727 20.2136 14.5947C21.0296 14.4771 22.7645 14.2271 23.8672 12.8231C24.8008 11.6321 25.3374 9.53704 24.3009 8.26527C23.6687 7.48604 22.691 7.33901 22.3896 7.30961C20.8605 7.15523 19.7578 8.25792 19.28 8.73575H19.2727Z" fill="#E6E7E8"/>
<path d="M24.8599 31.6938C23.0368 29.3928 23.0736 26.8713 23.103 26.2244H30.6895C30.4175 19.5348 24.904 14.1904 18.1482 14.1904C11.3924 14.1904 5.59229 19.8068 5.59229 26.739C5.59229 33.6713 11.216 39.295 18.1482 39.295C22.2943 39.295 25.9626 37.2881 28.2489 34.1932C27.1976 33.7742 25.9185 33.0243 24.8599 31.6938Z" fill="#E6E7E8"/>
<mask id="mask0_153_2113" style="mask-type:luminance" maskUnits="userSpaceOnUse" x="5" y="14" width="26" height="26">
<path d="M24.8599 31.6938C23.0368 29.3928 23.0736 26.8713 23.103 26.2244H30.6895C30.4175 19.5348 24.904 14.1904 18.1482 14.1904C11.3924 14.1904 5.59229 19.8068 5.59229 26.739C5.59229 33.6713 11.216 39.295 18.1482 39.295C22.2943 39.295 25.9626 37.2881 28.2489 34.1932C27.1976 33.7742 25.9185 33.0243 24.8599 31.6938Z" fill="white"/>
</mask>
<g mask="url(#mask0_153_2113)">
<path d="M11.6786 15.9771V37.5383C11.6786 37.5383 5.7755 35.7299 5.29767 29.7754C4.81984 23.8282 5.73875 19.8585 7.5398 18.0575C9.34086 16.2564 11.6786 15.9697 11.6786 15.9697" fill="#E6E7E8"/>
</g>
<path d="M7.17964 28.334H4.0039C3.57017 28.334 3.20996 27.9811 3.20996 27.54C3.20996 27.099 3.56282 26.7461 4.0039 26.7461H7.17964C7.61336 26.7461 7.97358 27.099 7.97358 27.54C7.97358 27.9811 7.62072 28.334 7.17964 28.334Z" fill="#E6E7E8"/>
<path d="M21.3973 24.7546C22.327 24.7546 23.0807 24.0009 23.0807 23.0711C23.0807 22.1414 22.327 21.3877 21.3973 21.3877C20.4676 21.3877 19.7139 22.1414 19.7139 23.0711C19.7139 24.0009 20.4676 24.7546 21.3973 24.7546Z" fill="#E6E7E8"/>
<path d="M39.5764 27.067C38.7677 27.8683 38.7236 28.8975 38.7236 29.1474C38.7236 29.6032 38.8192 29.9708 38.9001 30.206C39.1794 30.2575 39.5984 30.2942 40.0836 30.2281C40.5247 30.1619 41.4583 30.0296 42.0538 29.2724C42.5536 28.6328 42.8477 27.5007 42.289 26.8171C41.9435 26.3981 41.4215 26.3172 41.2525 26.3025C40.4291 26.2216 39.8337 26.8097 39.5764 27.067Z" fill="#E6E7E8"/>
<path d="M38.3486 27.067C39.1573 27.8683 39.2014 28.8975 39.2014 29.1474C39.2014 29.6032 39.1058 29.9708 39.025 30.206C38.7456 30.2575 38.3266 30.2942 37.8414 30.2281C37.4003 30.1619 36.4667 30.0296 35.8713 29.2724C35.3714 28.6328 35.0773 27.5007 35.636 26.8171C35.9815 26.3981 36.5035 26.3172 36.6726 26.3025C37.4959 26.2216 38.0913 26.8097 38.3486 27.067Z" fill="#E6E7E8"/>
<path d="M35.3416 39.4248C36.3267 38.1824 36.3046 36.8298 36.2899 36.4843H32.21C32.357 32.8822 35.3195 30.0078 38.9584 30.0078C42.6929 30.0078 45.7142 33.0365 45.7142 36.7636C45.7142 40.4907 42.6855 43.5194 38.9584 43.5194C36.731 43.5194 34.7535 42.4388 33.5185 40.7701C34.0845 40.5422 34.7682 40.1378 35.3416 39.4248Z" fill="#E6E7E8"/>
<path d="M46.5748 37.9544H44.862C44.4724 37.9544 44.1562 37.6383 44.1562 37.2487C44.1562 36.8591 44.4724 36.543 44.862 36.543H46.5748C46.9644 36.543 47.2805 36.8591 47.2805 37.2487C47.2805 37.6383 46.9644 37.9544 46.5748 37.9544Z" fill="#E6E7E8"/>
<path d="M37.6796 35.7566C38.2521 35.7566 38.7161 35.2926 38.7161 34.7201C38.7161 34.1477 38.2521 33.6836 37.6796 33.6836C37.1071 33.6836 36.6431 34.1477 36.6431 34.7201C36.6431 35.2926 37.1071 35.7566 37.6796 35.7566Z" fill="#E6E7E8"/>
</svg>
