<svg width="51" height="51" viewBox="0 0 51 51" fill="none" xmlns="http://www.w3.org/2000/svg">
<path d="M17.0007 9.09903C18.5004 10.5913 18.5813 12.5027 18.5886 12.9584C18.596 13.8038 18.4122 14.4802 18.2578 14.9212C17.7359 15.0094 16.964 15.0903 16.0598 14.958C15.2438 14.8404 13.5089 14.5904 12.4062 13.1863C11.4726 11.9954 10.9359 9.90032 11.9725 8.62855C12.6047 7.84932 13.5824 7.7023 13.8912 7.67289C15.4202 7.51851 16.5229 8.6212 17.0007 9.09903Z" fill="#D1E1E5"/>
<path d="M19.2727 9.09903C17.773 10.5913 17.6921 12.5027 17.6848 12.9584C17.6774 13.8038 17.8612 14.4802 18.0156 14.9212C18.5375 15.0094 19.3094 15.0903 20.2136 14.958C21.0296 14.8404 22.7645 14.5904 23.8672 13.1863C24.8008 11.9954 25.3374 9.90032 24.3009 8.62855C23.6687 7.84932 22.691 7.7023 22.3896 7.67289C20.8605 7.51851 19.7578 8.6212 19.28 9.09903H19.2727Z" fill="#D1E1E5"/>
<path d="M24.8599 32.057C23.0368 29.7561 23.0736 27.2346 23.103 26.5877H30.6895C30.4175 19.8981 24.904 14.5537 18.1482 14.5537C11.3924 14.5537 5.59229 20.1701 5.59229 27.1023C5.59229 34.0345 11.216 39.6582 18.1482 39.6582C22.2943 39.6582 25.9626 37.6514 28.2489 34.5565C27.1976 34.1375 25.9185 33.3876 24.8599 32.057Z" fill="#FFC700"/>
<mask id="mask0_153_2449" style="mask-type:luminance" maskUnits="userSpaceOnUse" x="5" y="14" width="26" height="26">
<path d="M24.8599 32.057C23.0368 29.7561 23.0736 27.2346 23.103 26.5877H30.6895C30.4175 19.8981 24.904 14.5537 18.1482 14.5537C11.3924 14.5537 5.59229 20.1701 5.59229 27.1023C5.59229 34.0345 11.216 39.6582 18.1482 39.6582C22.2943 39.6582 25.9626 37.6514 28.2489 34.5565C27.1976 34.1375 25.9185 33.3876 24.8599 32.057Z" fill="white"/>
</mask>
<g mask="url(#mask0_153_2449)">
<path d="M11.6786 16.3404V37.9016C11.6786 37.9016 5.7755 36.0932 5.29767 30.1387C4.81984 24.1915 5.73875 20.2218 7.5398 18.4208C9.34086 16.6197 11.6786 16.333 11.6786 16.333" fill="black"/>
</g>
<path d="M7.17964 28.6972H4.0039C3.57017 28.6972 3.20996 28.3444 3.20996 27.9033C3.20996 27.4622 3.56282 27.1094 4.0039 27.1094H7.17964C7.61336 27.1094 7.97358 27.4622 7.97358 27.9033C7.97358 28.3444 7.62072 28.6972 7.17964 28.6972Z" fill="black"/>
<path d="M21.3973 25.1179C22.327 25.1179 23.0807 24.3642 23.0807 23.4344C23.0807 22.5047 22.327 21.751 21.3973 21.751C20.4676 21.751 19.7139 22.5047 19.7139 23.4344C19.7139 24.3642 20.4676 25.1179 21.3973 25.1179Z" fill="black"/>
<path d="M39.5764 27.4303C38.7677 28.2316 38.7236 29.2608 38.7236 29.5107C38.7236 29.9665 38.8192 30.334 38.9001 30.5693C39.1794 30.6207 39.5984 30.6575 40.0836 30.5913C40.5247 30.5252 41.4583 30.3929 42.0538 29.6357C42.5536 28.9961 42.8477 27.864 42.289 27.1804C41.9435 26.7613 41.4215 26.6805 41.2525 26.6658C40.4291 26.5849 39.8337 27.173 39.5764 27.4303Z" fill="#D1E1E5"/>
<path d="M38.3486 27.4303C39.1573 28.2316 39.2014 29.2608 39.2014 29.5107C39.2014 29.9665 39.1058 30.334 39.025 30.5693C38.7456 30.6207 38.3266 30.6575 37.8414 30.5913C37.4003 30.5252 36.4667 30.3929 35.8713 29.6357C35.3714 28.9961 35.0773 27.864 35.636 27.1804C35.9815 26.7613 36.5035 26.6805 36.6726 26.6658C37.4959 26.5849 38.0913 27.173 38.3486 27.4303Z" fill="#D1E1E5"/>
<path d="M35.3416 39.7881C36.3267 38.5457 36.3046 37.1931 36.2899 36.8475H32.21C32.357 33.2454 35.3195 30.3711 38.9584 30.3711C42.6929 30.3711 45.7142 33.3998 45.7142 37.1269C45.7142 40.854 42.6855 43.8827 38.9584 43.8827C36.731 43.8827 34.7535 42.8021 33.5185 41.1333C34.0845 40.9054 34.7682 40.5011 35.3416 39.7881Z" fill="#FFC700"/>
<path d="M46.5748 38.3177H44.862C44.4724 38.3177 44.1562 38.0016 44.1562 37.612C44.1562 37.2224 44.4724 36.9062 44.862 36.9062H46.5748C46.9644 36.9062 47.2805 37.2224 47.2805 37.612C47.2805 38.0016 46.9644 38.3177 46.5748 38.3177Z" fill="#FFC700"/>
<path d="M37.6796 36.1199C38.2521 36.1199 38.7161 35.6559 38.7161 35.0834C38.7161 34.5109 38.2521 34.0469 37.6796 34.0469C37.1071 34.0469 36.6431 34.5109 36.6431 35.0834C36.6431 35.6559 37.1071 36.1199 37.6796 36.1199Z" fill="black"/>
</svg>
