<svg width="91" height="86" viewBox="0 0 91 86" fill="none" xmlns="http://www.w3.org/2000/svg">
<mask id="mask0_275_4928" style="mask-type:alpha" maskUnits="userSpaceOnUse" x="0" y="0" width="91" height="86">
<rect x="0.947266" y="0.995117" width="89.8711" height="84.04" fill="#D9D9D9"/>
</mask>
<g mask="url(#mask0_275_4928)">
<path d="M35.0745 69.7708C33.3233 68.2796 27.2734 63.9601 18.0887 65.0958C15.816 65.3773 9.33593 66.1779 6.47602 71.3442C6.02187 72.1648 4.41425 75.3435 5.52411 78.8534C7.09404 83.8197 12.1929 87.8669 16.1832 88.1019C20.3057 88.3447 25.4866 86.5556 28.6724 84.4927C31.7763 82.4836 36.4908 76.4198 38.5707 74.2979L35.0757 69.772L35.0745 69.7708Z" fill="#ECF4F7"/>
<path d="M56.69 69.771C58.4412 68.2798 64.4911 63.9603 73.6757 65.096C75.9484 65.3775 82.4285 66.1781 85.2885 71.3443C85.7426 72.165 87.3502 75.3436 86.2404 78.8535C84.6704 83.8199 79.5716 87.8671 75.5813 88.102C71.4588 88.3449 66.2779 86.5558 63.0921 84.4928C59.9882 82.4837 55.2737 76.42 53.1938 74.2981L56.6888 69.7721L56.69 69.771Z" fill="#ECF4F7"/>
<path d="M66.8145 76.0918H24.3563C24.3563 76.0918 20.9593 81.9478 21.3175 85.2606C21.6757 88.5734 23.9272 91.1182 32.1078 93.8355C39.2502 96.2062 44.8261 96.9644 45.5854 96.9644C46.3447 96.9644 51.9223 96.2062 59.063 93.8355C67.2453 91.1182 69.4952 88.5734 69.8534 85.2606C70.2116 81.9478 66.8145 76.0918 66.8145 76.0918Z" fill="#FFC700"/>
<path d="M81.6334 60.262C79.764 61.9038 74.0698 64.089 68.7127 65.8721C64.6966 67.2089 62.5304 72.1157 65.5074 75.1248C67.6061 77.246 72.2939 74.2949 75.2905 72.7708C77.6877 71.5515 81.274 67.5544 82.7008 65.3879C83.0661 65.3879 83.6772 65.4369 84.0062 65.2908C84.6411 65.0089 83.9989 63.6648 84.7706 61.0047C85.5423 58.3447 85.2754 57.0632 81.6334 60.262Z" fill="#FFC700"/>
<path d="M9.53851 59.9016C11.4079 61.5435 17.1021 63.7286 22.4592 65.5118C26.4753 66.8486 28.6414 71.7554 25.6645 74.7644C23.5658 76.8857 18.878 73.9345 15.8814 72.4104C13.4841 71.1911 9.89786 67.194 8.47108 65.0275C8.10573 65.0275 7.4947 65.0765 7.16571 64.9305C6.53077 64.6486 7.17297 63.3044 6.40129 60.6444C5.62961 57.9844 5.89645 56.7029 9.53851 59.9016Z" fill="#FFC700"/>
<path d="M45.5862 82.8969C23.4526 82.8969 17.941 74.8882 20.0076 69.6408C20.9848 67.1627 20.247 63.6855 45.5862 63.6855C70.9254 63.6855 70.1876 67.1627 71.1648 69.6408C73.2331 74.8882 67.7199 82.8969 45.5862 82.8969Z" fill="#1D1E1E"/>
<path d="M45.882 68.3693C49.2411 68.4539 65.1732 68.3693 74.3014 61.7469C83.4295 55.1246 81.1879 51.3903 79.8129 42.5616C79.2517 38.9624 79.0272 32.6118 76.2821 26.2628C72.7365 18.0605 65.4687 9.83871 51.4678 7.37852C47.7736 6.7293 43.987 6.7293 40.2929 7.37852C26.2953 9.83871 19.0275 18.0605 15.4818 26.2628C12.7368 32.6134 12.5107 38.9641 11.9511 42.5616C10.5761 51.3903 8.33451 55.1262 17.4626 61.7469C26.5908 68.3676 42.5246 68.4539 45.882 68.3693Z" fill="#FFC700"/>
<path d="M32.2204 12.6392C30.9147 11.3717 27.9039 8.1093 27.62 4.72815C27.3675 2.5283 26.1146 0.860503 24.8189 1.00369C23.5231 1.14687 22.678 3.04734 22.9289 5.2472C23.1798 7.44706 24.4343 9.11485 25.7284 8.97167C26.0205 8.93913 26.2896 8.81709 26.5289 8.62184C27.3741 10.3726 28.8613 12.3675 31.4677 13.6561C31.6707 13.757 31.9134 13.7489 32.1065 13.6301C32.4598 13.4121 32.5159 12.9272 32.2188 12.6392H32.2204Z" fill="#1D1E1E"/>
<path d="M58.9536 12.6392C60.2592 11.3717 63.27 8.1093 63.5539 4.72815C63.8048 2.5283 65.0593 0.860503 66.3535 1.00369C67.6476 1.14687 68.4943 3.04734 68.2434 5.2472C67.9925 7.44706 66.7381 9.11485 65.4439 8.97167C65.1518 8.93913 64.8827 8.81709 64.6434 8.62184C63.7982 10.3726 62.311 12.3675 59.7046 13.6561C59.5016 13.757 59.2589 13.7489 59.0658 13.6301C58.7126 13.4121 58.6564 12.9272 58.9536 12.6392Z" fill="#1D1E1E"/>
<path d="M29.4866 54.1469C33.63 54.1469 36.9888 50.836 36.9888 46.7517C36.9888 42.6674 33.63 39.3564 29.4866 39.3564C25.3432 39.3564 21.9844 42.6674 21.9844 46.7517C21.9844 50.836 25.3432 54.1469 29.4866 54.1469Z" fill="#1D1E1E"/>
<path d="M26.8376 46.1367C27.7921 46.1367 28.5658 45.3739 28.5658 44.4331C28.5658 43.4922 27.7921 42.7295 26.8376 42.7295C25.8831 42.7295 25.1094 43.4922 25.1094 44.4331C25.1094 45.3739 25.8831 46.1367 26.8376 46.1367Z" fill="white"/>
<path d="M61.6839 54.1469C65.8272 54.1469 69.1861 50.836 69.1861 46.7517C69.1861 42.6674 65.8272 39.3564 61.6839 39.3564C57.5405 39.3564 54.1816 42.6674 54.1816 46.7517C54.1816 50.836 57.5405 54.1469 61.6839 54.1469Z" fill="#1D1E1E"/>
<path d="M59.0368 46.1367C59.9913 46.1367 60.7651 45.3739 60.7651 44.4331C60.7651 43.4922 59.9913 42.7295 59.0368 42.7295C58.0824 42.7295 57.3086 43.4922 57.3086 44.4331C57.3086 45.3739 58.0824 46.1367 59.0368 46.1367Z" fill="white"/>
<path d="M50.998 54.7475C50.998 56.8525 48.7075 57.8689 45.8819 57.8689C43.0563 57.8689 40.7656 56.8525 40.7656 54.7475C40.7656 52.6424 42.2197 53.8492 45.8819 53.8492C49.544 53.8492 50.998 52.6424 50.998 54.7475Z" fill="#1D1E1E"/>
</g>
</svg>
