<svg width="51" height="51" viewBox="0 0 51 51" fill="none" xmlns="http://www.w3.org/2000/svg">
<g clip-path="url(#clip0_153_2592)">
<path d="M25.3035 43.0967L32.0614 39.2506C32.5218 38.9868 32.8114 38.496 32.8114 37.9685V30.2762C32.8114 29.7487 32.5292 29.2579 32.0614 28.9942L25.3035 25.148C24.843 24.8843 24.2712 24.8843 23.8034 25.148L17.0455 28.9942C16.585 29.2579 16.2954 29.7487 16.2954 30.2762V37.9685C16.2954 38.496 16.5776 38.9868 17.0455 39.2506L23.8034 43.0967C24.2638 43.3605 24.8356 43.3605 25.3035 43.0967Z" fill="#E6E7E8"/>
<path d="M16.1393 27.4414L22.8972 23.5953C23.3576 23.3316 23.6473 22.8407 23.6473 22.3132V14.6209C23.6473 14.0935 23.3651 13.6026 22.8972 13.3389L16.1393 9.49272C15.6789 9.22899 15.1071 9.22899 14.6392 9.49272L7.88872 13.3389C7.42087 13.6026 7.13867 14.0935 7.13867 14.6209V22.3132C7.13867 22.8407 7.42087 23.3316 7.88872 23.5953L14.6466 27.4414C15.1071 27.7052 15.6789 27.7052 16.1467 27.4414H16.1393Z" fill="#E6E7E8"/>
<path d="M34.6306 27.4566L41.3885 23.6104C41.849 23.3467 42.1386 22.8558 42.1386 22.3284V14.6287C42.1386 14.1013 41.8564 13.6104 41.3885 13.3467L34.6306 9.50054C34.1702 9.2368 33.5984 9.2368 33.1305 9.50054L26.3726 13.3467C25.9122 13.6104 25.6226 14.1013 25.6226 14.6287V22.321C25.6226 22.8485 25.9048 23.3394 26.3726 23.6031L33.1305 27.4493C33.5909 27.713 34.1628 27.713 34.6306 27.4493V27.4566Z" fill="#E6E7E8"/>
</g>
<defs>
<clipPath id="clip0_153_2592">
<rect width="35" height="34" fill="white" transform="translate(7.13867 9.29492)"/>
</clipPath>
</defs>
</svg>
