<svg width="51" height="51" viewBox="0 0 51 51" fill="none" xmlns="http://www.w3.org/2000/svg">
<g clip-path="url(#clip0_153_2451)">
<path d="M25.3748 43.46L32.1327 39.6138C32.5931 39.3501 32.8827 38.8593 32.8827 38.3318V30.6395C32.8827 30.112 32.6005 29.6212 32.1327 29.3574L25.3748 25.5113C24.9143 25.2475 24.3425 25.2475 23.8747 25.5113L17.1168 29.3574C16.6563 29.6212 16.3667 30.112 16.3667 30.6395V38.3318C16.3667 38.8593 16.6489 39.3501 17.1168 39.6138L23.8747 43.46C24.3351 43.7237 24.9069 43.7237 25.3748 43.46Z" fill="#FFC700"/>
<path d="M16.2106 27.8047L22.9685 23.9586C23.4289 23.6948 23.7186 23.204 23.7186 22.6765V14.9842C23.7186 14.4567 23.4364 13.9659 22.9685 13.7022L16.2106 9.85601C15.7502 9.59227 15.1783 9.59227 14.7105 9.85601L7.96001 13.7022C7.49216 13.9659 7.20996 14.4567 7.20996 14.9842V22.6765C7.20996 23.204 7.49216 23.6948 7.96001 23.9586L14.7179 27.8047C15.1783 28.0685 15.7502 28.0685 16.218 27.8047H16.2106Z" fill="#FFC700"/>
<path d="M34.7019 27.8199L41.4598 23.9737C41.9202 23.71 42.2099 23.2191 42.2099 22.6917V14.992C42.2099 14.4646 41.9277 13.9737 41.4598 13.71L34.7019 9.86382C34.2415 9.60008 33.6697 9.60008 33.2018 9.86382L26.4439 13.71C25.9835 13.9737 25.6938 14.4646 25.6938 14.992V22.6843C25.6938 23.2118 25.976 23.7026 26.4439 23.9664L33.2018 27.8125C33.6622 28.0763 34.2341 28.0763 34.7019 27.8125V27.8199Z" fill="#FFC700"/>
</g>
<defs>
<clipPath id="clip0_153_2451">
<rect width="35" height="34" fill="white" transform="translate(7.20996 9.6582)"/>
</clipPath>
</defs>
</svg>
