<svg width="21" height="21" viewBox="0 0 21 21" fill="none" xmlns="http://www.w3.org/2000/svg">
<path d="M13.7105 3.47852C12.47 3.47852 11.2794 4.08602 10.5023 5.04602C9.72523 4.08602 8.53464 3.47852 7.29415 3.47852C5.09833 3.47852 3.37305 5.29352 3.37305 7.60352C3.37305 10.4385 5.797 12.7485 9.46858 16.2585L10.5023 17.241L11.5361 16.251C15.2076 12.7485 17.6316 10.4385 17.6316 7.60352C17.6316 5.29352 15.9063 3.47852 13.7105 3.47852ZM10.5736 15.141L10.5023 15.216L10.431 15.141C7.03749 11.9085 4.7989 9.77102 4.7989 7.60352C4.7989 6.10352 5.86829 4.97852 7.29415 4.97852C8.39206 4.97852 9.46145 5.72102 9.8393 6.74852H11.1725C11.5432 5.72102 12.6126 4.97852 13.7105 4.97852C15.1364 4.97852 16.2057 6.10352 16.2057 7.60352C16.2057 9.77102 13.9671 11.9085 10.5736 15.141Z" fill="#999999"/>
</svg>
