<svg width="33" height="42" viewBox="0 0 33 42" fill="none" xmlns="http://www.w3.org/2000/svg">
<path d="M22.9554 27.459C22.2263 27.459 21.6387 28.0505 21.6387 28.7776C21.6387 29.5047 22.2293 30.0962 22.9554 30.0962C23.6814 30.0962 24.272 29.5047 24.272 28.7776C24.272 28.0505 23.6814 27.459 22.9554 27.459ZM23.0723 28.602C22.9061 28.602 22.7708 28.4664 22.7708 28.3001C22.7708 28.1337 22.9061 27.9981 23.0723 27.9981C23.2384 27.9981 23.3737 28.1337 23.3737 28.3001C23.3737 28.4664 23.2384 28.602 23.0723 28.602Z" fill="#1D1E1E"/>
<path d="M32.5869 26.2234C31.3748 18.9434 23.6593 18.1177 23.6593 18.1177C26.7203 16.8453 28.2492 13.0065 28.1877 9.30335C28.1231 5.60016 25.1913 1.64125 17.7957 0.938814C10.3971 0.236378 4.149 1.64125 2.3001 3.36653C0.451207 5.09181 0.77115 10.6682 0.77115 10.6682V35.4814C0.798837 35.9466 0.940349 37.37 2.04784 38.6116C3.60756 40.3615 5.81023 40.3153 6.1271 40.303C6.1271 40.303 8.05906 39.4434 11.3046 36.0699C10.5201 36.4088 9.46496 36.532 8.58819 36.3995C5.79793 35.9744 3.77676 34.055 4.07209 32.114C4.36742 30.1731 6.8685 28.9438 9.65877 29.3721C9.73875 29.3844 9.81874 29.3998 9.89872 29.4152C9.17885 28.4571 8.67125 27.2032 8.51436 25.7983C8.14212 22.4555 9.88334 19.5195 12.4029 19.2391C14.9224 18.9588 17.2666 21.4389 17.6389 24.7816C17.7865 26.0971 17.4881 27.311 17.1743 28.4016C17.2051 28.4016 18.4418 25.9924 20.0907 25.1082C20.6568 24.8032 22.0011 23.9682 23.7547 24.113C25.8189 24.2825 27.4801 25.6997 28.2892 27.5575C26.9387 29.0547 25.6436 29.5169 25.6282 29.52C25.3944 29.6001 25.2682 29.8527 25.3482 30.0868C25.4128 30.2748 25.5851 30.3918 25.7728 30.3918C25.8189 30.3918 25.8681 30.3826 25.9174 30.3672C25.9758 30.3456 27.2279 29.9112 28.6184 28.5125C28.6461 28.6234 28.6738 28.7343 28.6984 28.8483C29.2675 31.6488 28.4307 33.2047 27.7632 34.3169C26.8526 35.8357 25.5728 36.9294 23.5762 37.9307C19.5154 35.0563 16.9867 28.8021 16.9867 28.8021C16.9867 28.8021 15.67 32.2496 13.7349 34.2306C13.7349 34.2306 14.6394 37.2961 17.888 39.3541C16.0361 39.3972 14.2856 39.1261 12.9228 38.6547C12.0153 39.4034 8.57896 40.6265 8.57896 40.6265C15.35 41.2026 14.0795 41.2057 15.9222 41.2118C18.0142 41.2211 23.6347 41.3566 27.0371 39.1261C30.6919 36.7323 31.9655 33.0784 32.1685 32.4653C32.4977 31.4763 33.0545 29.0548 32.5838 26.2296L32.5869 26.2234ZM20.9736 11.3306C20.8229 12.8217 19.7277 13.8753 18.9032 14.5377C18.1926 15.1108 17.3128 15.4004 16.4175 15.3819C14.6025 15.3418 11.5477 15.2956 10.3725 15.4219C9.70491 15.4928 9.24961 15.2617 8.94813 14.9691C8.58819 14.6209 8.40053 14.1187 8.40053 13.6012V9.22941C8.40053 8.54238 8.71432 7.88924 9.25576 7.50721C11.1508 6.17628 15.5808 6.00375 17.2359 6.42583C19.2909 6.94649 21.2628 8.50849 20.9767 11.3306H20.9736Z" fill="#1D1E1E"/>
</svg>
