<svg width="51" height="51" viewBox="0 0 51 51" fill="none" xmlns="http://www.w3.org/2000/svg">
<g clip-path="url(#clip0_153_2594)">
<path d="M38.3508 36.6504C38.3508 40.3101 32.5068 42.2947 24.9311 42.2947C17.3553 42.2947 11.5044 40.3101 11.5044 36.6504C11.5044 32.9907 17.3484 33.1724 24.9242 33.1724C32.4999 33.1724 38.3439 32.9907 38.3439 36.6504H38.3508Z" fill="#E6E7E8"/>
<path d="M24.9244 37.7265C26.4009 37.7602 33.4178 37.7265 37.4334 34.8405C41.449 31.9545 40.4624 30.3332 39.8621 26.4852C39.6137 24.9177 39.5171 22.1527 38.3097 19.3878C36.7504 15.8156 33.5489 12.2366 27.3876 11.167C25.7593 10.8844 24.0964 10.8844 22.4681 11.167C16.3068 12.2366 13.1053 15.8156 11.546 19.3878C10.3386 22.1527 10.242 24.9177 9.99362 26.4852C9.38645 30.3265 8.39981 31.9545 12.4223 34.8405C16.4448 37.7265 23.4548 37.7602 24.9313 37.7265H24.9244Z" fill="#E6E7E8"/>
<path d="M19.2322 14.6314C18.5146 13.9452 16.8587 12.1692 16.7 10.3259C16.5689 9.12845 15.879 8.22026 15.1614 8.29426C14.4438 8.36826 13.9816 9.40427 14.1196 10.6017C14.2576 11.7992 14.9475 12.7074 15.6582 12.6267C15.8169 12.6065 15.9687 12.5392 16.0998 12.4383C16.562 13.3936 17.3831 14.4767 18.8182 15.1763C18.9286 15.2302 19.0666 15.2302 19.1701 15.1629C19.3633 15.0418 19.3978 14.7794 19.2322 14.6247V14.6314Z" fill="#E6E7E8"/>
<path d="M30.6235 14.6313C31.3411 13.9451 32.997 12.1691 33.1557 10.3258C33.2937 9.12835 33.9836 8.22016 34.6943 8.30089C35.4049 8.38162 35.8741 9.4109 35.7361 10.6084C35.5981 11.8058 34.9082 12.714 34.1975 12.6333C34.0388 12.6131 33.887 12.5458 33.7559 12.4449C33.2937 13.4002 32.4726 14.4833 31.0375 15.183C30.9271 15.2368 30.7891 15.2368 30.6856 15.1695C30.4924 15.0484 30.4579 14.786 30.6235 14.6313Z" fill="#E6E7E8"/>
<path d="M18.7286 30.6028C20.4547 30.6028 21.8541 29.2384 21.8541 27.5553C21.8541 25.8722 20.4547 24.5078 18.7286 24.5078C17.0024 24.5078 15.603 25.8722 15.603 27.5553C15.603 29.2384 17.0024 30.6028 18.7286 30.6028Z" fill="#E6E7E8"/>
<path d="M17.9764 27.6836C18.4908 27.6836 18.9078 27.277 18.9078 26.7754C18.9078 26.2738 18.4908 25.8672 17.9764 25.8672C17.4619 25.8672 17.0449 26.2738 17.0449 26.7754C17.0449 27.277 17.4619 27.6836 17.9764 27.6836Z" fill="#E6E7E8"/>
<path d="M31.127 30.6028C32.8532 30.6028 34.2525 29.2384 34.2525 27.5553C34.2525 25.8722 32.8532 24.5078 31.127 24.5078C29.4008 24.5078 28.0015 25.8722 28.0015 27.5553C28.0015 29.2384 29.4008 30.6028 31.127 30.6028Z" fill="#E6E7E8"/>
<path d="M30.368 27.6836C30.8824 27.6836 31.2994 27.277 31.2994 26.7754C31.2994 26.2738 30.8824 25.8672 30.368 25.8672C29.8535 25.8672 29.4365 26.2738 29.4365 26.7754C29.4365 27.277 29.8535 27.6836 30.368 27.6836Z" fill="#E6E7E8"/>
</g>
<defs>
<clipPath id="clip0_153_2594">
<rect width="31" height="34" fill="white" transform="translate(9.42773 8.29492)"/>
</clipPath>
</defs>
</svg>
