<svg width="51" height="51" viewBox="0 0 51 51" fill="none" xmlns="http://www.w3.org/2000/svg">
<g clip-path="url(#clip0_153_2453)">
<path d="M38.4221 37.0137C38.4221 40.6734 32.5781 42.6579 25.0023 42.6579C17.4266 42.6579 11.5757 40.6734 11.5757 37.0137C11.5757 33.354 17.4197 33.5357 24.9954 33.5357C32.5712 33.5357 38.4152 33.354 38.4152 37.0137H38.4221Z" fill="black"/>
<path d="M24.9957 38.0898C26.4722 38.1235 33.4891 38.0898 37.5047 35.2038C41.5203 32.3178 40.5336 30.6965 39.9334 26.8484C39.685 25.281 39.5884 22.516 38.381 19.7511C36.8216 16.1789 33.6202 12.5999 27.4589 11.5303C25.8305 11.2477 24.1677 11.2477 22.5394 11.5303C16.3781 12.5999 13.1766 16.1789 11.6173 19.7511C10.4099 22.516 10.3133 25.281 10.0649 26.8484C9.45774 30.6897 8.4711 32.3178 12.4936 35.2038C16.5161 38.0898 23.5261 38.1235 25.0026 38.0898H24.9957Z" fill="#FFC700"/>
<path d="M19.3035 14.9947C18.5859 14.3085 16.93 12.5325 16.7713 10.6892C16.6402 9.49173 15.9503 8.58354 15.2327 8.65754C14.5151 8.73154 14.0529 9.76755 14.1908 10.965C14.3288 12.1625 15.0188 13.0707 15.7295 12.9899C15.8882 12.9698 16.0399 12.9025 16.171 12.8016C16.6333 13.7569 17.4544 14.84 18.8895 15.5396C18.9999 15.5934 19.1379 15.5934 19.2414 15.5262C19.4346 15.4051 19.4691 15.1427 19.3035 14.988V14.9947Z" fill="black"/>
<path d="M30.6948 14.9946C31.4123 14.3084 33.0683 12.5324 33.2269 10.6891C33.3649 9.49163 34.0549 8.58344 34.7656 8.66417C35.4762 8.7449 35.9454 9.77418 35.8074 10.9716C35.6694 12.1691 34.9795 13.0773 34.2688 12.9966C34.1101 12.9764 33.9583 12.9091 33.8272 12.8082C33.3649 13.7635 32.5439 14.8466 31.1088 15.5462C30.9984 15.6001 30.8604 15.6001 30.7569 15.5328C30.5637 15.4117 30.5292 15.1493 30.6948 14.9946Z" fill="black"/>
<path d="M18.7998 30.9661C20.526 30.9661 21.9254 29.6017 21.9254 27.9186C21.9254 26.2355 20.526 24.8711 18.7998 24.8711C17.0737 24.8711 15.6743 26.2355 15.6743 27.9186C15.6743 29.6017 17.0737 30.9661 18.7998 30.9661Z" fill="black"/>
<path d="M18.0477 28.0469C18.5621 28.0469 18.9791 27.6402 18.9791 27.1387C18.9791 26.6371 18.5621 26.2305 18.0477 26.2305C17.5332 26.2305 17.1162 26.6371 17.1162 27.1387C17.1162 27.6402 17.5332 28.0469 18.0477 28.0469Z" fill="white"/>
<path d="M31.1983 30.9661C32.9245 30.9661 34.3238 29.6017 34.3238 27.9186C34.3238 26.2355 32.9245 24.8711 31.1983 24.8711C29.4721 24.8711 28.0728 26.2355 28.0728 27.9186C28.0728 29.6017 29.4721 30.9661 31.1983 30.9661Z" fill="black"/>
<path d="M30.4393 28.0469C30.9537 28.0469 31.3707 27.6402 31.3707 27.1387C31.3707 26.6371 30.9537 26.2305 30.4393 26.2305C29.9248 26.2305 29.5078 26.6371 29.5078 27.1387C29.5078 27.6402 29.9248 28.0469 30.4393 28.0469Z" fill="white"/>
</g>
<defs>
<clipPath id="clip0_153_2453">
<rect width="31" height="34" fill="white" transform="translate(9.49902 8.6582)"/>
</clipPath>
</defs>
</svg>
