<svg width="172" height="223" viewBox="0 0 172 223" fill="none" xmlns="http://www.w3.org/2000/svg">
<path d="M41.2047 90.5733C44.9238 94.2742 45.1244 99.0143 45.1426 100.145C45.1608 102.241 44.705 103.918 44.3222 105.012C43.0278 105.231 41.1135 105.432 38.8711 105.103C36.8474 104.812 32.5449 104.192 29.8102 100.71C27.4949 97.7563 26.164 92.5605 28.7346 89.4065C30.3025 87.474 32.7272 87.1093 33.4929 87.0364C37.285 86.6536 40.0197 89.3882 41.2047 90.5733Z" fill="#D1E1E5"/>
<path d="M46.8388 90.5733C43.1197 94.2742 42.9192 99.0143 42.9009 100.145C42.8827 102.241 43.3385 103.918 43.7213 105.012C45.0157 105.231 46.93 105.432 49.1724 105.103C51.1961 104.812 55.4986 104.192 58.2333 100.71C60.5486 97.7563 61.8795 92.5605 59.3089 89.4065C57.741 87.474 55.3163 87.1093 54.5688 87.0364C50.7768 86.6536 48.0421 89.3882 46.8571 90.5733H46.8388Z" fill="#D1E1E5"/>
<path d="M60.6959 147.509C56.1745 141.803 56.2657 135.549 56.3386 133.945H75.1531C74.4786 117.355 60.8052 104.101 44.0509 104.101C27.2965 104.101 12.9121 118.029 12.9121 135.221C12.9121 152.413 26.8589 166.36 44.0509 166.36C54.3332 166.36 63.4305 161.383 69.1004 153.707C66.4934 152.668 63.3211 150.809 60.6959 147.509Z" fill="#FFC700"/>
<mask id="mask0_1077_13833" style="mask-type:luminance" maskUnits="userSpaceOnUse" x="12" y="104" width="64" height="63">
<path d="M60.6959 147.509C56.1745 141.803 56.2657 135.549 56.3386 133.945H75.1531C74.4786 117.355 60.8052 104.101 44.0509 104.101C27.2965 104.101 12.9121 118.029 12.9121 135.221C12.9121 152.413 26.8589 166.36 44.0509 166.36C54.3332 166.36 63.4305 161.383 69.1004 153.707C66.4934 152.668 63.3211 150.809 60.6959 147.509Z" fill="white"/>
</mask>
<g mask="url(#mask0_1077_13833)">
<path d="M28.0065 108.531V162.003C28.0065 162.003 13.3669 157.518 12.1819 142.751C10.9968 128.002 13.2757 118.157 17.7423 113.69C22.209 109.224 28.0065 108.513 28.0065 108.513" fill="black"/>
</g>
<path d="M16.8487 139.177H8.97287C7.89723 139.177 7.00391 138.302 7.00391 137.208C7.00391 136.114 7.879 135.239 8.97287 135.239H16.8487C17.9243 135.239 18.8177 136.114 18.8177 137.208C18.8177 138.302 17.9426 139.177 16.8487 139.177Z" fill="black"/>
<path d="M52.1085 130.299C54.4143 130.299 56.2834 128.43 56.2834 126.124C56.2834 123.818 54.4143 121.949 52.1085 121.949C49.8028 121.949 47.9336 123.818 47.9336 126.124C47.9336 128.43 49.8028 130.299 52.1085 130.299Z" fill="black"/>
<path fill-rule="evenodd" clip-rule="evenodd" d="M75.0039 54.9116C94.3339 54.9116 110.004 42.6192 110.004 27.4558C110.004 12.2924 94.3339 0 75.0039 0C55.6739 0 40.0039 12.2924 40.0039 27.4558C40.0039 35.3757 44.2787 42.5123 51.117 47.5234L51.117 62.4325L67.599 54.2959C69.9859 54.6992 72.4633 54.9116 75.0039 54.9116ZM56.1855 30.8879C58.1185 30.8879 59.6855 29.3514 59.6855 27.456C59.6855 25.5605 58.1185 24.024 56.1855 24.024C54.2525 24.024 52.6855 25.5605 52.6855 27.456C52.6855 29.3514 54.2525 30.8879 56.1855 30.8879ZM78.5036 27.456C78.5036 29.3514 76.9366 30.888 75.0036 30.888C73.0706 30.888 71.5036 29.3514 71.5036 27.456C71.5036 25.5606 73.0706 24.024 75.0036 24.024C76.9366 24.024 78.5036 25.5606 78.5036 27.456ZM93.8217 30.888C95.7547 30.888 97.3217 29.3514 97.3217 27.456C97.3217 25.5606 95.7547 24.024 93.8217 24.024C91.8887 24.024 90.3217 25.5606 90.3217 27.456C90.3217 29.3514 91.8887 30.888 93.8217 30.888Z" fill="#E6E7E8"/>
<path d="M149.273 140.915C147.268 142.902 147.158 145.454 147.158 146.074C147.158 147.205 147.395 148.116 147.596 148.699C148.289 148.827 149.328 148.918 150.531 148.754C151.625 148.59 153.94 148.262 155.417 146.384C156.657 144.798 157.386 141.99 156 140.295C155.143 139.256 153.849 139.055 153.43 139.019C151.388 138.818 149.911 140.277 149.273 140.915Z" fill="#D1E1E5"/>
<path d="M146.228 140.915C148.233 142.902 148.343 145.454 148.343 146.074C148.343 147.205 148.106 148.116 147.905 148.699C147.212 148.827 146.173 148.918 144.97 148.754C143.876 148.59 141.561 148.262 140.084 146.384C138.844 144.798 138.115 141.99 139.501 140.295C140.357 139.256 141.652 139.055 142.071 139.019C144.113 138.818 145.59 140.277 146.228 140.915Z" fill="#D1E1E5"/>
<path d="M138.77 171.561C141.213 168.48 141.159 165.126 141.122 164.269H131.004C131.369 155.335 138.716 148.207 147.74 148.207C157.001 148.207 164.494 155.718 164.494 164.961C164.494 174.205 156.983 181.716 147.74 181.716C142.216 181.716 137.312 179.036 134.249 174.897C135.653 174.332 137.348 173.33 138.77 171.561Z" fill="#FFC700"/>
<path d="M166.629 167.915H162.381C161.415 167.915 160.631 167.131 160.631 166.165C160.631 165.199 161.415 164.415 162.381 164.415H166.629C167.595 164.415 168.379 165.199 168.379 166.165C168.379 167.131 167.595 167.915 166.629 167.915Z" fill="#FFC700"/>
<path d="M144.569 162.464C145.988 162.464 147.139 161.313 147.139 159.893C147.139 158.474 145.988 157.323 144.569 157.323C143.149 157.323 141.998 158.474 141.998 159.893C141.998 161.313 143.149 162.464 144.569 162.464Z" fill="black"/>
<path fill-rule="evenodd" clip-rule="evenodd" d="M132.504 116.308C116.764 116.308 104.004 106.299 104.004 93.9516C104.004 81.6042 116.764 71.5947 132.504 71.5947C148.244 71.5947 161.004 81.6042 161.004 93.9516C161.004 100.401 157.523 106.212 151.955 110.292L151.955 122.433L138.533 115.807C136.59 116.136 134.573 116.308 132.504 116.308ZM147.827 96.7463C146.253 96.7463 144.977 95.4951 144.977 93.9517C144.977 92.4083 146.253 91.1571 147.827 91.1571C149.401 91.1571 150.677 92.4083 150.677 93.9517C150.677 95.4951 149.401 96.7463 147.827 96.7463ZM129.654 93.9516C129.654 95.495 130.93 96.7462 132.504 96.7462C134.078 96.7462 135.354 95.495 135.354 93.9516C135.354 92.4082 134.078 91.157 132.504 91.157C130.93 91.157 129.654 92.4082 129.654 93.9516ZM117.181 96.7462C115.607 96.7462 114.331 95.495 114.331 93.9516C114.331 92.4082 115.607 91.157 117.181 91.157C118.755 91.157 120.031 92.4082 120.031 93.9516C120.031 95.495 118.755 96.7462 117.181 96.7462Z" fill="#E6E7E8"/>
<g filter="url(#filter0_f_1077_13833)">
<ellipse cx="40.5039" cy="215" rx="36.5" ry="4" fill="#E6E7E8"/>
</g>
<g filter="url(#filter1_f_1077_13833)">
<ellipse cx="150.004" cy="215" rx="18" ry="4" fill="#E6E7E8"/>
</g>
<defs>
<filter id="filter0_f_1077_13833" x="0.00390625" y="207" width="81" height="16" filterUnits="userSpaceOnUse" color-interpolation-filters="sRGB">
<feFlood flood-opacity="0" result="BackgroundImageFix"/>
<feBlend mode="normal" in="SourceGraphic" in2="BackgroundImageFix" result="shape"/>
<feGaussianBlur stdDeviation="2" result="effect1_foregroundBlur_1077_13833"/>
</filter>
<filter id="filter1_f_1077_13833" x="128.004" y="207" width="44" height="16" filterUnits="userSpaceOnUse" color-interpolation-filters="sRGB">
<feFlood flood-opacity="0" result="BackgroundImageFix"/>
<feBlend mode="normal" in="SourceGraphic" in2="BackgroundImageFix" result="shape"/>
<feGaussianBlur stdDeviation="2" result="effect1_foregroundBlur_1077_13833"/>
</filter>
</defs>
</svg>
