<svg width="24" height="23" viewBox="0 0 24 23" fill="none" xmlns="http://www.w3.org/2000/svg">
<g clip-path="url(#clip0_328_7752)">
<path d="M12 14.4053C13.6569 14.4053 15 13.0621 15 11.4053C15 9.74842 13.6569 8.40527 12 8.40527C10.3431 8.40527 9 9.74842 9 11.4053C9 13.0621 10.3431 14.4053 12 14.4053Z" fill="#FFC700"/>
<path d="M9.1875 2.03027L7.47188 3.90527H4.5C3.46875 3.90527 2.625 4.74902 2.625 5.78027V17.0303C2.625 18.0615 3.46875 18.9053 4.5 18.9053H19.5C20.5312 18.9053 21.375 18.0615 21.375 17.0303V5.78027C21.375 4.74902 20.5312 3.90527 19.5 3.90527H16.5281L14.8125 2.03027H9.1875ZM12 16.0928C9.4125 16.0928 7.3125 13.9928 7.3125 11.4053C7.3125 8.81777 9.4125 6.71777 12 6.71777C14.5875 6.71777 16.6875 8.81777 16.6875 11.4053C16.6875 13.9928 14.5875 16.0928 12 16.0928Z" fill="#FFC700"/>
</g>
<defs>
<clipPath id="clip0_328_7752">
<rect width="22.5" height="22.5" fill="white" transform="translate(0.75 0.155273)"/>
</clipPath>
</defs>
</svg>
