<svg width="30" height="30" viewBox="0 0 30 30" fill="none" xmlns="http://www.w3.org/2000/svg">
<path d="M19.8128 4.67773C17.9521 4.67773 16.1662 5.58898 15.0006 7.02898C13.8349 5.58898 12.049 4.67773 10.1883 4.67773C6.89457 4.67773 4.30664 7.40023 4.30664 10.8652C4.30664 15.1177 7.94257 18.5827 13.4499 23.8477L15.0006 25.3215L16.5512 23.8365C22.0585 18.5827 25.6945 15.1177 25.6945 10.8652C25.6945 7.40023 23.1065 4.67773 19.8128 4.67773ZM15.1075 22.1715L15.0006 22.284L14.8936 22.1715C9.80331 17.3227 6.44542 14.1165 6.44542 10.8652C6.44542 8.61523 8.04951 6.92773 10.1883 6.92773C11.8352 6.92773 13.4392 8.04148 14.006 9.58273H16.0058C16.5619 8.04148 18.1659 6.92773 19.8128 6.92773C21.9516 6.92773 23.5557 8.61523 23.5557 10.8652C23.5557 14.1165 20.1978 17.3227 15.1075 22.1715Z" fill="black"/>
</svg>
