<svg width="36" height="37" viewBox="0 0 36 37" fill="none" xmlns="http://www.w3.org/2000/svg">
<circle cx="17.9551" cy="18.709" r="17.5" fill="#ECECEC"/>
<g clip-path="url(#clip0_328_5927)">
<path d="M27.2372 26.8642C27.2372 29.4926 23.0401 30.9179 17.5991 30.9179C12.1582 30.9179 7.95605 29.4926 7.95605 26.8642C7.95605 24.2358 12.1532 24.3663 17.5942 24.3663C23.0351 24.3663 27.2323 24.2358 27.2323 26.8642H27.2372Z" fill="black"/>
<path d="M17.5933 27.6375C18.6538 27.6617 23.6934 27.6375 26.5774 25.5648C29.4614 23.492 28.7528 22.3276 28.3216 19.5639C28.1432 18.4381 28.0739 16.4524 27.2067 14.4666C26.0868 11.901 23.7875 9.33058 19.3624 8.56235C18.1929 8.35942 16.9987 8.35942 15.8293 8.56235C11.4041 9.33058 9.10487 11.901 7.98496 14.4666C7.11778 16.4524 7.0484 18.4381 6.87001 19.5639C6.43394 22.3227 5.72533 23.492 8.61429 25.5648C11.5032 27.6375 16.5379 27.6617 17.5983 27.6375H17.5933Z" fill="#FFC700"/>
<path d="M13.5058 11.0505C12.9904 10.5577 11.8012 9.28213 11.6872 7.95827C11.593 7.09824 11.0975 6.44598 10.5821 6.49912C10.0668 6.55227 9.73478 7.29634 9.83389 8.15636C9.933 9.01639 10.4285 9.66865 10.9389 9.61067C11.0529 9.59618 11.1619 9.54786 11.2561 9.47539C11.5881 10.1615 12.1778 10.9394 13.2085 11.4419C13.2878 11.4805 13.3869 11.4805 13.4612 11.4322C13.5999 11.3452 13.6247 11.1568 13.5058 11.0457V11.0505Z" fill="black"/>
<path d="M21.6864 11.0501C22.2018 10.5573 23.3911 9.28175 23.505 7.9579C23.6041 7.09787 24.0997 6.44561 24.6101 6.50358C25.1205 6.56156 25.4574 7.3008 25.3583 8.16082C25.2592 9.02085 24.7637 9.67311 24.2533 9.61513C24.1393 9.60064 24.0303 9.55232 23.9361 9.47985C23.6041 10.1659 23.0145 10.9438 21.9837 11.4463C21.9045 11.485 21.8054 11.485 21.731 11.4366C21.5923 11.3497 21.5675 11.1612 21.6864 11.0501Z" fill="black"/>
<path d="M13.1432 22.521C14.383 22.521 15.388 21.5411 15.388 20.3323C15.388 19.1235 14.383 18.1436 13.1432 18.1436C11.9035 18.1436 10.8984 19.1235 10.8984 20.3323C10.8984 21.5411 11.9035 22.521 13.1432 22.521Z" fill="black"/>
<path d="M12.6035 20.4246C12.973 20.4246 13.2725 20.1326 13.2725 19.7724C13.2725 19.4121 12.973 19.1201 12.6035 19.1201C12.2341 19.1201 11.9346 19.4121 11.9346 19.7724C11.9346 20.1326 12.2341 20.4246 12.6035 20.4246Z" fill="white"/>
<path d="M22.0485 22.521C23.2882 22.521 24.2932 21.5411 24.2932 20.3323C24.2932 19.1235 23.2882 18.1436 22.0485 18.1436C20.8087 18.1436 19.8037 19.1235 19.8037 20.3323C19.8037 21.5411 20.8087 22.521 22.0485 22.521Z" fill="black"/>
<path d="M21.5039 20.4246C21.8734 20.4246 22.1729 20.1326 22.1729 19.7724C22.1729 19.4121 21.8734 19.1201 21.5039 19.1201C21.1345 19.1201 20.835 19.4121 20.835 19.7724C20.835 20.1326 21.1345 20.4246 21.5039 20.4246Z" fill="white"/>
</g>
<defs>
<clipPath id="clip0_328_5927">
<rect width="22.2643" height="24.4189" fill="white" transform="translate(6.46387 6.5)"/>
</clipPath>
</defs>
</svg>
