<svg width="32" height="31" viewBox="0 0 32 31" fill="none" xmlns="http://www.w3.org/2000/svg">
<g clip-path="url(#clip0_153_2602)">
<path d="M20.3286 18.1056H19.3131L18.9532 17.7667C20.2129 16.3358 20.9712 14.4781 20.9712 12.4572C20.9712 7.95099 17.2308 4.29834 12.6162 4.29834C8.0017 4.29834 4.26123 7.95099 4.26123 12.4572C4.26123 16.9634 8.0017 20.616 12.6162 20.616C14.6857 20.616 16.5881 19.8755 18.0534 18.6454L18.4005 18.9968V19.9884L24.8274 26.2519L26.7426 24.3817L20.3286 18.1056ZM12.6162 18.1056C9.41563 18.1056 6.832 15.5827 6.832 12.4572C6.832 9.33172 9.41563 6.80875 12.6162 6.80875C15.8168 6.80875 18.4005 9.33172 18.4005 12.4572C18.4005 15.5827 15.8168 18.1056 12.6162 18.1056Z" fill="black"/>
</g>
<defs>
<clipPath id="clip0_153_2602">
<rect width="30.8493" height="30.125" fill="white" transform="translate(0.405273 0.532715)"/>
</clipPath>
</defs>
</svg>
