<svg width="256" height="48" viewBox="0 0 256 48" fill="none" xmlns="http://www.w3.org/2000/svg">
<path fill-rule="evenodd" clip-rule="evenodd" d="M13.6836 1.05469C6.50389 1.05469 0.683594 6.87499 0.683594 14.0547V27.0186C0.683594 34.1983 6.50389 40.0186 13.6836 40.0186H211.776C212.306 42.9841 215.27 46.9756 224.459 46.9756C223.167 46.3995 220.718 44.25 220.22 40.0186H241.947C249.127 40.0186 254.947 34.1983 254.947 27.0186V14.0547C254.947 6.87499 249.127 1.05469 241.947 1.05469H13.6836Z" fill="#FBFBF3"/>
<path d="M211.776 40.0186L212.268 39.9305L212.194 39.5186H211.776V40.0186ZM224.459 46.9756V47.4756L224.663 46.5189L224.459 46.9756ZM220.22 40.0186V39.5186H219.658L219.724 40.077L220.22 40.0186ZM1.18359 14.0547C1.18359 7.15113 6.78004 1.55469 13.6836 1.55469V0.554688C6.22775 0.554688 0.183594 6.59884 0.183594 14.0547H1.18359ZM1.18359 27.0186V14.0547H0.183594V27.0186H1.18359ZM13.6836 39.5186C6.78004 39.5186 1.18359 33.9221 1.18359 27.0186H0.183594C0.183594 34.4744 6.22775 40.5186 13.6836 40.5186V39.5186ZM211.776 39.5186H13.6836V40.5186H211.776V39.5186ZM224.459 46.4756C219.933 46.4756 217.005 45.4925 215.157 44.1995C213.315 42.9103 212.511 41.2893 212.268 39.9305L211.284 40.1066C211.571 41.7133 212.515 43.5709 214.584 45.0188C216.647 46.4629 219.795 47.4756 224.459 47.4756V46.4756ZM219.724 40.077C220.242 44.4829 222.802 46.7841 224.255 47.4323L224.663 46.5189C223.532 46.0149 221.194 44.0171 220.717 39.9601L219.724 40.077ZM241.947 39.5186H220.22V40.5186H241.947V39.5186ZM254.447 27.0186C254.447 33.9221 248.851 39.5186 241.947 39.5186V40.5186C249.403 40.5186 255.447 34.4744 255.447 27.0186H254.447ZM254.447 14.0547V27.0186H255.447V14.0547H254.447ZM241.947 1.55469C248.851 1.55469 254.447 7.15113 254.447 14.0547H255.447C255.447 6.59884 249.403 0.554688 241.947 0.554688V1.55469ZM13.6836 1.55469H241.947V0.554688H13.6836V1.55469Z" fill="#E6E7E8"/>
</svg>
